<svg width="76" height="79" viewBox="0 0 76 79" fill="none" xmlns="http://www.w3.org/2000/svg">
<rect x="9.11133" y="2" width="6.22222" height="6.25882" stroke="#07AD70" stroke-width="3"/>
<rect x="22.4443" y="2" width="6.22222" height="6.25882" stroke="#07AD70" stroke-width="3"/>
<rect x="47.333" y="2" width="6.22222" height="6.25882" stroke="#07AD70" stroke-width="3"/>
<rect x="61.5557" y="2" width="6.22222" height="6.25882" stroke="#07AD70" stroke-width="3"/>
<rect x="6.44434" y="12.7294" width="64" height="5.36471" stroke="#07AD70" stroke-width="3"/>
<rect x="10.8887" y="23.4589" width="55.1111" height="5.36471" stroke="#07AD70" stroke-width="3"/>
<rect x="25.1113" y="46.7059" width="26.6667" height="5.36471" stroke="#07AD70" stroke-width="3"/>
<path d="M34.8889 4.68237V12.7294" stroke="#07AD70" stroke-width="3"/>
<path d="M41.1115 4.68237V12.7294" stroke="#07AD70" stroke-width="3"/>
<path d="M34.8889 18.0941V22.5647" stroke="#07AD70" stroke-width="3"/>
<path d="M41.1115 18.0941V22.5647" stroke="#07AD70" stroke-width="3"/>
<path d="M34.8889 52.0706V77.1059" stroke="#07AD70" stroke-width="3"/>
<path d="M41.1115 52.0706V77.1059" stroke="#07AD70" stroke-width="3"/>
<path d="M34.8889 28.8235V45.8117" stroke="#07AD70" stroke-width="3"/>
<path d="M41.1115 28.8235V45.8117" stroke="#07AD70" stroke-width="3"/>
<path d="M34.8887 77.1059H41.1109" stroke="#07AD70" stroke-width="3"/>
<path d="M34.8887 4.68235H41.1109" stroke="#07AD70" stroke-width="3"/>
<path d="M34.8887 62.8H53.5553" stroke="#07AD70" stroke-width="3"/>
<path d="M42 71.7412H53.5556V55.6471H42" stroke="#07AD70" stroke-width="3"/>
<path d="M28.6662 45.8118V41.3412" stroke="#07AD70" stroke-width="3"/>
<path d="M49.1115 45.8118V41.3412" stroke="#07AD70" stroke-width="3"/>
<path d="M25.1113 41.3412H31.3336" stroke="#07AD70" stroke-width="3"/>
<path d="M44.667 41.3412H50.8892" stroke="#07AD70" stroke-width="3"/>
<path d="M34.8889 30.2869C34.8889 30.2869 15.8945 46.0322 2 28.8235" stroke="#07AD70" stroke-width="3"/>
<path d="M41.1111 30.2869C41.1111 30.2869 60.1055 46.0322 74 28.8235" stroke="#07AD70" stroke-width="3"/>
<path d="M12.6662 8.25879V11.8353" stroke="#07AD70" stroke-width="3"/>
<path d="M25.1115 8.25879V11.8353" stroke="#07AD70" stroke-width="3"/>
<path d="M50.8889 8.25879V11.8353" stroke="#07AD70" stroke-width="3"/>
<path d="M63.3332 8.25879V11.8353" stroke="#07AD70" stroke-width="3"/>
<path d="M49.1115 66.3765V69.0588" stroke="#07AD70" stroke-width="3"/>
</svg>
