<svg width="75" height="90" viewBox="0 0 75 90" fill="none" xmlns="http://www.w3.org/2000/svg">
<path d="M32.2063 87.9999H9.82129V79.4357L13.8413 75.4736H59.5008L63.3927 79.4357V87.9999H37.347" stroke="#07AD68" stroke-width="3"/>
<path d="M25 75.4736L31.0343 19.1052H44.004L50 75.4736" stroke="#07AD68" stroke-width="3"/>
<path d="M55.3571 75.4737L48.9 13.9704L37.0921 3L25.5132 13.9704L18.75 75.4737" stroke="#07AD68" stroke-width="3"/>
<path d="M1.78613 51.3158V41.1061L23.2147 33.421" stroke="#07AD68" stroke-width="3"/>
<path d="M2.67871 35.2105V24.6701L25.893 13.7368" stroke="#07AD68" stroke-width="3"/>
<path d="M1.78613 29.8421H23.2147" stroke="#07AD68" stroke-width="3"/>
<path d="M2.67871 45.0526H22.3216" stroke="#07AD68" stroke-width="3"/>
<path d="M0 51.3158H4.46429" stroke="#07AD68" stroke-width="3"/>
<path d="M0 36.1053H4.46429" stroke="#07AD68" stroke-width="3"/>
<path d="M49.1074 13.7368L72.3217 24.4737V35.2105" stroke="#07AD68" stroke-width="3"/>
<path d="M67.8574 36.1053H75.0003" stroke="#07AD68" stroke-width="3"/>
<path d="M50.8926 29.8421H72.3211" stroke="#07AD68" stroke-width="3"/>
<path d="M50.8926 32.5264L72.3211 41.3171V51.3158" stroke="#07AD68" stroke-width="3"/>
<path d="M68.75 51.3158H75" stroke="#07AD68" stroke-width="3"/>
<path d="M71.429 45.0526H51.7861" stroke="#07AD68" stroke-width="3"/>
<path d="M44.2115 75.4736L25.8926 62.01L46.4283 44.1955L29.6798 29.6544L43.7669 19.1052" stroke="#07AD68" stroke-width="3"/>
<path d="M30.6779 19.1052L44.975 29.6544L27.6787 45.4753L49.1073 63.5907L30.6779 75.4736" stroke="#07AD68" stroke-width="3"/>
</svg>
