<svg width="91" height="92" viewBox="0 0 91 92" fill="none" xmlns="http://www.w3.org/2000/svg">
<path d="M62.5127 50.95V33.595H53.7423V16.24H89V50.95H2V16.24H36.5651V33.595H27.3207V50.95" stroke="#07AD68" stroke-width="3"/>
<path d="M59.7041 16.24V11.1319L70.9496 2L81.898 11.1319V16.24" stroke="#07AD68" stroke-width="3"/>
<path d="M7.32617 16.24V11.1319L18.5717 2L29.5201 11.1319V16.24" stroke="#07AD68" stroke-width="3"/>
<rect x="6.43848" y="22.47" width="24.8571" height="6.23" stroke="#07AD68" stroke-width="3"/>
<rect x="57.9287" y="22.47" width="24.8571" height="6.23" stroke="#07AD68" stroke-width="3"/>
<path d="M59.7041 10.9H81.898" stroke="#07AD68" stroke-width="3"/>
<path d="M7.32617 10.9H29.5201" stroke="#07AD68" stroke-width="3"/>
<path d="M26.8568 34.04H7.32617V40.27H26.8568" stroke="#07AD68" stroke-width="3"/>
<path d="M62.3672 40.27H82.7856V34.04H62.3672" stroke="#07AD68" stroke-width="3"/>
<path d="M53.981 34.04H50.7074L52.3442 39.1131L47.8584 42.4116L50.9197 46.2349L47.8584 50.7414L64.1431 69.6997L49.5107 73.3732L58.9166 90.11L26.8574 68.806L45.7738 64.5514L36.0016 51.5886L42.5106 49.901C42.5106 49.901 38.6025 47.8526 38.6025 47.8526C38.6025 47.8526 42.5106 42.4116 42.5106 42.4116L38.6025 40.6889L42.5106 34.04H36.8769" stroke="#07AD68" stroke-width="3"/>
<path d="M7.32617 90.11H82.7854" stroke="#07AD68" stroke-width="3"/>
<path d="M66.8057 80.32H73.0199" stroke="#07AD68" stroke-width="3"/>
<path d="M26.8574 82.99H33.0717" stroke="#07AD68" stroke-width="3"/>
<path d="M13.541 75.87H19.7553" stroke="#07AD68" stroke-width="3"/>
<path d="M21.5303 59.85H27.7446" stroke="#07AD68" stroke-width="3"/>
<path d="M72.1328 58.07H78.3471" stroke="#07AD68" stroke-width="3"/>
<path d="M75.6836 69.64H81.8979" stroke="#07AD68" stroke-width="3"/>
<path d="M66.8057 69.64H73.0199" stroke="#07AD68" stroke-width="3"/>
<path d="M60.5918 80.32H63.2551" stroke="#07AD68" stroke-width="3"/>
<path d="M21.5303 82.99H24.1935" stroke="#07AD68" stroke-width="3"/>
<path d="M8.21387 75.87H10.8771" stroke="#07AD68" stroke-width="3"/>
<path d="M15.3164 59.85H17.9797" stroke="#07AD68" stroke-width="3"/>
</svg>
