<svg width="81" height="80" viewBox="0 0 81 80" fill="none" xmlns="http://www.w3.org/2000/svg">
<rect x="15.4307" y="1.88501" width="49.2442" height="61.069" stroke="#07AD68" stroke-width="3"/>
<rect x="20.8027" y="8.08044" width="38.5" height="7.08046" stroke="#07AD68" stroke-width="3"/>
<ellipse cx="40.4997" cy="39.0574" rx="12.5349" ry="12.3908" stroke="#07AD68" stroke-width="3"/>
<path d="M40.5 19.5862V26.6666" stroke="#07AD68" stroke-width="3"/>
<path d="M50.3486 47.0229L55.7207 52.3333" stroke="#07AD68" stroke-width="3"/>
<path d="M30.6515 47.9081L26.1748 52.3334" stroke="#07AD68" stroke-width="3"/>
<path d="M21.6973 62.954C21.6973 62.954 22.2058 70.0344 25.533 70.0344C28.8601 70.0344 28.8601 62.954 28.8601 62.954" stroke="#07AD68" stroke-width="3"/>
<path d="M59.3027 62.954C59.3027 62.954 58.7942 70.0344 55.467 70.0344C52.1399 70.0344 52.1399 62.954 52.1399 62.954" stroke="#07AD68" stroke-width="3"/>
<path d="M55.7213 70.4745C55.7213 70.4745 55.7213 78 65.3196 78C74.9179 78 75.4189 70.4745 75.4189 70.4745V44.3678" stroke="#07AD68" stroke-width="3"/>
<rect width="7.16279" height="35.4023" transform="matrix(-1 0 0 1 79 8.08044)" stroke="#07AD68" stroke-width="3"/>
<path d="M74.5235 1V8.08046" stroke="#07AD68" stroke-width="3"/>
<path d="M79 16.046H71.8372" stroke="#07AD68" stroke-width="3"/>
<path d="M25.2787 70.4745C25.2787 70.4745 25.2787 78 15.6804 78C6.08206 78 5.58105 70.4745 5.58105 70.4745V44.3678" stroke="#07AD68" stroke-width="3"/>
<rect x="2" y="8.08044" width="7.16279" height="35.4023" stroke="#07AD68" stroke-width="3"/>
<path d="M6.47652 1V8.08046" stroke="#07AD68" stroke-width="3"/>
<path d="M2 16.046H9.16279" stroke="#07AD68" stroke-width="3"/>
<path d="M29.7559 46.1379L45.8721 28.4368" stroke="#07AD68" stroke-width="3"/>
<path d="M33.3369 49.6782L50.3485 32.8621" stroke="#07AD68" stroke-width="3"/>
<rect x="44.9766" y="20.4713" width="1.7907" height="1.77011" stroke="#07AD68" stroke-width="3"/>
<rect x="49.4531" y="54.1034" width="1.7907" height="1.77011" stroke="#07AD68" stroke-width="3"/>
<rect x="56.6162" y="45.2529" width="1.7907" height="1.77011" stroke="#07AD68" stroke-width="3"/>
<rect x="22.5928" y="46.1379" width="1.7907" height="1.77011" stroke="#07AD68" stroke-width="3"/>
<rect x="23.4883" y="28.4368" width="1.7907" height="1.77011" stroke="#07AD68" stroke-width="3"/>
<rect x="33.3369" y="21.3563" width="1.7907" height="1.77011" stroke="#07AD68" stroke-width="3"/>
<rect x="31.5469" y="54.1034" width="1.7907" height="1.77011" stroke="#07AD68" stroke-width="3"/>
<rect x="20.8027" y="33.7471" width="1.7907" height="1.77011" stroke="#07AD68" stroke-width="3"/>
<rect x="28.8604" y="24.0115" width="1.7907" height="1.77011" stroke="#07AD68" stroke-width="3"/>
<rect x="20.8027" y="39.9425" width="1.7907" height="1.77011" stroke="#07AD68" stroke-width="3"/>
<rect x="36.9189" y="55.8735" width="1.7907" height="1.77011" stroke="#07AD68" stroke-width="3"/>
<rect x="43.1865" y="55.8735" width="1.7907" height="1.77011" stroke="#07AD68" stroke-width="3"/>
<rect x="58.4072" y="39.0575" width="1.7907" height="1.77011" stroke="#07AD68" stroke-width="3"/>
<rect x="57.5117" y="32.8621" width="1.7907" height="1.77011" stroke="#07AD68" stroke-width="3"/>
<rect x="54.8252" y="28.4368" width="1.7907" height="1.77011" stroke="#07AD68" stroke-width="3"/>
<rect x="50.3486" y="23.1265" width="1.7907" height="1.77011" stroke="#07AD68" stroke-width="3"/>
</svg>
