<svg width="91" height="92" viewBox="0 0 91 92" fill="none" xmlns="http://www.w3.org/2000/svg">
<path d="M10.8779 40.5782C10.8779 40.5782 10.8779 58.0497 10.8779 73.885C10.8779 90 25.9815 90 25.9815 90H67.8884C67.8884 90 81.0106 88.7793 81.0106 73.885C81.0106 56.4286 81.0106 37.5555 81.0106 37.5555H74.5322C74.5322 37.5555 74.5322 56.1679 74.5322 73.885C74.5322 82.4516 66.6866 83.7006 66.6866 83.7006H42.5464C42.5464 83.7006 34.595 80.6576 34.595 70.5851C34.595 66.0191 37.9132 59.8267 47.2357 59.8267C53.8632 59.8267 57.8574 66.0191 57.8574 72.6326C57.8574 80.5106 49.4929 83.7006 49.4929 83.7006" stroke="#07AD68" stroke-width="3"/>
<path d="M59.6629 83.3334C59.6629 83.3334 64.143 77.1124 64.143 71.3021C64.143 64.7545 61.8276 53.5555 46.4255 53.5555C32.2073 53.5555 28.6328 64.8768 28.6328 71.3021C28.6328 82.3249 41.3098 90 41.3098 90" stroke="#07AD68" stroke-width="3"/>
<path d="M9.99023 40.2222H16.6033C16.6033 40.2222 16.6033 61.5428 16.6033 72.675C16.6033 83.3983 25.3145 82.8634 25.3145 82.8634H32.1841" stroke="#07AD68" stroke-width="3"/>
<rect x="2" y="8.22217" width="24.8571" height="21.3333" stroke="#07AD68" stroke-width="3"/>
<path d="M2 29.5555L6.66574 34.8889H22.6484L26.8571 29.5555" stroke="#07AD68" stroke-width="3"/>
<path d="M23.306 34C23.306 34 22.6642 40.2222 17.9795 40.2222" stroke="#07AD68" stroke-width="3"/>
<path d="M6.43848 34C6.43848 34 6.86553 40.2222 10.8773 40.2222" stroke="#07AD68" stroke-width="3"/>
<path d="M8.21387 29.5556V23.3334H20.6424V29.5556" stroke="#07AD68" stroke-width="3"/>
<path d="M8.21387 8.22217V16.2222H20.6424V8.22217" stroke="#07AD68" stroke-width="3"/>
<path d="M14.4282 8.22217V16.2222" stroke="#07AD68" stroke-width="3"/>
<path d="M4.66309 8.22222V2H23.3059V8.22222" stroke="#07AD68" stroke-width="3"/>
<path d="M65.918 15.3333H88.9996" stroke="#07AD68" stroke-width="3"/>
<path d="M74.3249 15.3333V8.33585H70.3574V2L82.786 2V8.33585H78.9178V15.3333" stroke="#07AD68" stroke-width="3"/>
<path d="M82.9993 4.66663H88.9996V26H65.918V4.66663H71.58" stroke="#07AD68" stroke-width="3"/>
<path d="M70.3574 26.0001V19.7778H82.786V26.0001" stroke="#07AD68" stroke-width="3"/>
<path d="M65.918 26L69.5955 31.3333H85.6053L88.9996 26" stroke="#07AD68" stroke-width="3"/>
<path d="M85.4486 31.3334C85.4486 31.3334 84.153 37.5556 80.1221 37.5556" stroke="#07AD68" stroke-width="3"/>
<path d="M69.4697 30.4445C69.4697 30.4445 70.2923 37.6797 74.7963 37.5534" stroke="#07AD68" stroke-width="3"/>
</svg>
