<svg width="1197" height="566" viewBox="0 0 1197 566" fill="none" xmlns="http://www.w3.org/2000/svg">
<path fill-rule="evenodd" clip-rule="evenodd" d="M0.268311 271.292L603.349 131.473L668.156 57.4028C668.156 57.4028 673.27 49.2497 675.801 47.7596C678.331 46.2694 693.296 37.5061 695.3 36.5736C697.304 35.641 720.805 36.5736 720.805 36.5736L735.941 22.9125L758.596 12.4431L792.49 4.80828C792.49 4.80828 805.106 -1.50357 806.82 0.861408C808.533 3.22638 812.507 10.6849 813.546 12.0605C814.585 13.4362 826.792 35.088 828.299 37.3271C829.805 39.5662 842.338 43.4229 843.67 45.5912C845.002 47.7596 850.066 57.4028 850.066 57.4028C850.066 57.4028 863.929 70.7975 864.198 71.6068C864.467 72.4161 869.194 83.4352 870.576 85.4436C871.958 87.452 883.28 96.4863 883.28 96.4863L1196.81 169.646V366.77L398.637 553.506L127.416 463.26L0.268311 271.292Z" fill="#ECEBEB"/>
<mask id="mask0" mask-type="alpha" maskUnits="userSpaceOnUse" x="0" y="0" width="1197" height="554">
<path fill-rule="evenodd" clip-rule="evenodd" d="M0.268311 271.292L603.349 131.473L668.156 57.4028C668.156 57.4028 673.27 49.2497 675.801 47.7596C678.331 46.2694 693.296 37.5061 695.3 36.5736C697.304 35.641 720.805 36.5736 720.805 36.5736L735.941 22.9125L758.596 12.4431L792.49 4.80828C792.49 4.80828 805.106 -1.50357 806.82 0.861408C808.533 3.22638 812.507 10.6849 813.546 12.0605C814.585 13.4362 826.792 35.088 828.299 37.3271C829.805 39.5662 842.338 43.4229 843.67 45.5912C845.002 47.7596 850.066 57.4028 850.066 57.4028C850.066 57.4028 863.929 70.7975 864.198 71.6068C864.467 72.4161 869.194 83.4352 870.576 85.4436C871.958 87.452 883.28 96.4863 883.28 96.4863L1196.81 169.646V366.77L398.637 553.506L127.416 463.26L0.268311 271.292Z" fill="white"/>
</mask>
<g mask="url(#mask0)">
<path fill-rule="evenodd" clip-rule="evenodd" d="M559.881 141.942C559.881 141.942 561.709 150.761 564.086 153.466C564.086 153.466 576.088 168.468 578.704 169.037C578.704 169.037 614.301 168.571 618.362 168.571C618.362 168.571 646.65 171.964 661.939 169.178C677.228 166.392 704.637 159.653 743.539 163.806C782.441 167.959 822.486 178.137 822.486 178.137L1132.86 201.906L1219.4 161.957L844.531 -35.5091L755.283 -14.0145L559.881 141.942Z" fill="#379D80"/>
<path fill-rule="evenodd" clip-rule="evenodd" d="M719.527 201.722H924.118L1121.41 229.263L1101.51 193.237L924.118 168.544H719.527V201.722Z" fill="#C0C0C0"/>
<mask id="mask1" mask-type="alpha" maskUnits="userSpaceOnUse" x="719" y="168" width="403" height="62">
<path fill-rule="evenodd" clip-rule="evenodd" d="M719.527 201.722H924.118L1121.41 229.263L1101.51 193.237L924.118 168.544H719.527V201.722Z" fill="white"/>
</mask>
<g mask="url(#mask1)">
<path fill-rule="evenodd" clip-rule="evenodd" d="M927.266 167.702L888.885 201.904L929.17 203.759L927.266 167.702Z" fill="#AAAAAA"/>
<path fill-rule="evenodd" clip-rule="evenodd" d="M925.328 166.22V206.189L1148.58 238.347L1123.15 179.198L925.328 166.22Z" fill="#929292"/>
</g>
<path fill-rule="evenodd" clip-rule="evenodd" d="M889.454 201.268L1064.51 226.02H1105.98L930.331 197.868L889.454 201.268Z" fill="#A4A3A3"/>
<path fill-rule="evenodd" clip-rule="evenodd" d="M1065.47 296.716H994.66L841.212 274.728L915.183 212.931L1065.47 296.716Z" fill="#A4A3A3"/>
<path fill-rule="evenodd" clip-rule="evenodd" d="M1070.66 298.766L915.822 275.577V213.28L1075.31 235.747L1070.66 298.766Z" fill="#929292"/>
<path fill-rule="evenodd" clip-rule="evenodd" d="M409.72 556.734L397.389 554.531L375.886 543.056L324.497 506.48L354.109 490.34L449.281 517.673L437.929 534.254L409.72 556.734Z" fill="#676161"/>
<path fill-rule="evenodd" clip-rule="evenodd" d="M449.498 519.749L396.654 516.71L365.473 504.189L346.542 501.111L336.815 508.013L298.959 501.111L297.197 482.911L385.394 466.427L488.711 487.205L492.506 498.064L449.498 519.749Z" fill="#FFE572"/>
<path fill-rule="evenodd" clip-rule="evenodd" d="M299.281 462.323L382.453 448.237L431.128 456.113C431.128 456.113 443.021 466.916 444.16 467.554C445.299 468.191 480.098 473.844 480.098 473.844L498.539 480.118L486.008 497.179L474.768 491.06L434.565 476.511L423.415 473.844L386.571 471.629L299.281 486.242V462.323Z" fill="#CECECE"/>
<path fill-rule="evenodd" clip-rule="evenodd" d="M595.973 377.115L626.21 387.904L601.688 396.696L620.523 404.837L705.319 426.166L714.503 430.032L835.201 404.837L665.543 364.627H626.21L595.973 377.115Z" fill="#F5D95F"/>
<path fill-rule="evenodd" clip-rule="evenodd" d="M794.045 341.649L737.838 354.217L799.76 361.231L818.595 369.371L903.391 390.701L912.575 394.566L1033.27 369.371L863.616 329.161H824.282L794.045 341.649Z" fill="#F5D95F"/>
<path fill-rule="evenodd" clip-rule="evenodd" d="M762.715 298.559L655.695 313.912L506.013 315.897L320.023 362.125L201.472 390.214L210.398 419.474L413.892 372.321L597.672 377.641L675.512 356.251L762.715 298.559Z" fill="#CECECE"/>
<path fill-rule="evenodd" clip-rule="evenodd" d="M244.52 429.434L446.74 382.436L628.08 387.553L603.077 395.871L498.081 403.453L426.75 421.944H408.233L392.522 416.792L244.52 450.6V429.434Z" fill="#CECECE"/>
<path fill-rule="evenodd" clip-rule="evenodd" d="M887.703 298.318H762.99L683.309 331.929L646.176 359.787L596.282 377.777L663.806 365.642L764.788 338.048L889.635 335.542L887.703 298.318Z" fill="#C4C3C3"/>
<mask id="mask2" mask-type="alpha" maskUnits="userSpaceOnUse" x="596" y="298" width="294" height="80">
<path fill-rule="evenodd" clip-rule="evenodd" d="M887.703 298.318H762.99L683.309 331.929L646.176 359.787L596.282 377.777L663.806 365.642L764.788 338.048L889.635 335.542L887.703 298.318Z" fill="white"/>
</mask>
<g mask="url(#mask2)">
<path fill-rule="evenodd" clip-rule="evenodd" d="M762.93 296.842V374.362L937.201 360.412L887.464 294.445L762.93 296.842Z" fill="#AFAFAF"/>
<path fill-rule="evenodd" clip-rule="evenodd" d="M888.385 321.625H761.537L678.51 334.03L588.257 375.066L590.194 383.728L908.758 355.437L888.385 321.625Z" fill="#937272"/>
<mask id="mask3" mask-type="alpha" maskUnits="userSpaceOnUse" x="588" y="321" width="321" height="63">
<path fill-rule="evenodd" clip-rule="evenodd" d="M888.385 321.625H761.537L678.51 334.03L588.257 375.066L590.194 383.728L908.758 355.437L888.385 321.625Z" fill="white"/>
</mask>
<g mask="url(#mask3)">
<path fill-rule="evenodd" clip-rule="evenodd" d="M762.93 296.842V374.362L937.201 360.412L887.464 294.445L762.93 296.842Z" fill="#876565"/>
</g>
</g>
<path fill-rule="evenodd" clip-rule="evenodd" d="M901.494 287.463L887.924 298.541V334.802L901.494 322.794V287.463Z" fill="#C4C3C3"/>
<mask id="mask4" mask-type="alpha" maskUnits="userSpaceOnUse" x="887" y="287" width="15" height="48">
<path fill-rule="evenodd" clip-rule="evenodd" d="M901.494 287.463L887.924 298.541V334.802L901.494 322.794V287.463Z" fill="white"/>
</mask>
<g mask="url(#mask4)">
<path fill-rule="evenodd" clip-rule="evenodd" d="M900.875 287.117L897.138 317.624L904.893 306.155L900.875 287.117Z" fill="#A4A4A4"/>
<path fill-rule="evenodd" clip-rule="evenodd" d="M902.872 309.299L884.907 324.203L886.118 335.851C886.118 335.851 899.039 328.76 900.431 328.078C901.824 327.396 904.596 319.803 904.596 319.803L902.872 309.299Z" fill="#937272"/>
<mask id="mask5" mask-type="alpha" maskUnits="userSpaceOnUse" x="884" y="309" width="21" height="27">
<path fill-rule="evenodd" clip-rule="evenodd" d="M902.872 309.299L884.907 324.203L886.118 335.851C886.118 335.851 899.039 328.76 900.431 328.078C901.824 327.396 904.596 319.803 904.596 319.803L902.872 309.299Z" fill="white"/>
</mask>
<g mask="url(#mask5)">
<path fill-rule="evenodd" clip-rule="evenodd" d="M900.876 287.117L894.657 333.131L916.193 308.781L900.876 287.117Z" fill="#6F4E4E"/>
</g>
</g>
<path fill-rule="evenodd" clip-rule="evenodd" d="M901.029 322.833V287.211L1042.87 307.831L1037.33 341.175L901.029 322.833Z" fill="#AAA9A9"/>
<mask id="mask6" mask-type="alpha" maskUnits="userSpaceOnUse" x="901" y="287" width="142" height="55">
<path fill-rule="evenodd" clip-rule="evenodd" d="M901.029 322.833V287.211L1042.87 307.831L1037.33 341.175L901.029 322.833Z" fill="white"/>
</mask>
<g mask="url(#mask6)">
<path fill-rule="evenodd" clip-rule="evenodd" d="M1040.63 330.476L898.938 310.359V327.651L1050.14 348.578L1040.63 330.476Z" fill="#6F4E4E"/>
</g>
<path fill-rule="evenodd" clip-rule="evenodd" d="M1035.45 340.185C1035.45 340.185 916.058 324.656 901.275 322.721L887.505 334.289L1023.97 356.121L1036.66 339.421" fill="#AAAAAA"/>
<mask id="mask7" mask-type="alpha" maskUnits="userSpaceOnUse" x="887" y="322" width="150" height="35">
<path fill-rule="evenodd" clip-rule="evenodd" d="M1035.45 340.185C1035.45 340.185 916.058 324.656 901.275 322.721L887.505 334.289L1023.97 356.121L1036.66 339.421" fill="white"/>
</mask>
<g mask="url(#mask7)">
<path fill-rule="evenodd" clip-rule="evenodd" d="M1037.62 340.993H992.84L895.371 326.744L900.594 321.576H916.97L1034.16 336.967L1037.62 340.993Z" fill="#3B3B3B"/>
</g>
<path fill-rule="evenodd" clip-rule="evenodd" d="M1000.47 370.184C1000.47 370.184 957.485 368.581 949.409 366.14C941.333 363.699 901.87 359.298 901.87 359.298C901.87 359.298 868.58 351.584 841.041 351.219C813.503 350.855 768.006 351.671 764.03 353.503C760.055 355.336 687.073 366.14 678.916 366.14C670.758 366.14 661.295 366.14 661.295 366.14C661.295 366.14 698.856 351.16 709.855 345.891C720.855 340.622 743.812 333.648 761.888 333.648C779.963 333.648 876.161 333.648 879.768 333.648C883.376 333.648 889.102 334.771 898.347 335.798C907.591 336.825 1022.13 351.916 1022.13 351.916L1000.47 370.184Z" fill="#717171"/>
<mask id="mask8" mask-type="alpha" maskUnits="userSpaceOnUse" x="661" y="333" width="362" height="38">
<path fill-rule="evenodd" clip-rule="evenodd" d="M1000.47 370.184C1000.47 370.184 957.485 368.581 949.409 366.14C941.333 363.699 901.87 359.298 901.87 359.298C901.87 359.298 868.58 351.584 841.041 351.219C813.503 350.855 768.006 351.671 764.03 353.503C760.055 355.336 687.073 366.14 678.916 366.14C670.758 366.14 661.295 366.14 661.295 366.14C661.295 366.14 698.856 351.16 709.855 345.891C720.855 340.622 743.812 333.648 761.888 333.648C779.963 333.648 876.161 333.648 879.768 333.648C883.376 333.648 889.102 334.771 898.347 335.798C907.591 336.825 1022.13 351.916 1022.13 351.916L1000.47 370.184Z" fill="white"/>
</mask>
<g mask="url(#mask8)">
<path fill-rule="evenodd" clip-rule="evenodd" d="M762.64 331.805V355.576L876.824 359.293L903.162 325.955L762.64 331.805Z" fill="#666666"/>
<path fill-rule="evenodd" clip-rule="evenodd" d="M890.161 333.508L861.106 358.163L1023.16 377.504L1031.14 345.624L890.161 333.508Z" fill="#3B3B3B"/>
</g>
<path fill-rule="evenodd" clip-rule="evenodd" d="M1198.38 169.459L1102.43 193.179V227.1L1067.1 234.114V298.093L1032.31 305.874V340.563L997.345 348.232V369.951L964.613 376.351L825.744 406.947C825.744 406.947 707.187 429.015 699.333 432.224C691.478 435.433 671.676 444.491 671.676 444.491L624.598 453.309C624.598 453.309 594.227 461.726 585.426 463.753C576.626 465.78 565.522 470.232 555.529 468.265C545.536 466.297 498.31 479.816 498.31 479.816L485.026 496.585C485.026 496.585 466.028 508.85 464.063 510.056C462.097 511.261 438.732 520.899 438.732 520.899L398.287 553.015L1117.39 466.297L1253.2 381.987L1198.38 169.459Z" fill="#F5D95F"/>
<mask id="mask9" mask-type="alpha" maskUnits="userSpaceOnUse" x="398" y="169" width="856" height="385">
<path fill-rule="evenodd" clip-rule="evenodd" d="M1198.38 169.459L1102.43 193.179V227.1L1067.1 234.114V298.093L1032.31 305.874V340.563L997.345 348.232V369.951L964.613 376.351L825.744 406.947C825.744 406.947 707.187 429.015 699.333 432.224C691.478 435.433 671.676 444.491 671.676 444.491L624.598 453.309C624.598 453.309 594.227 461.726 585.426 463.753C576.626 465.78 565.522 470.232 555.529 468.265C545.536 466.297 498.31 479.816 498.31 479.816L485.026 496.585C485.026 496.585 466.028 508.85 464.063 510.056C462.097 511.261 438.732 520.899 438.732 520.899L398.287 553.015L1117.39 466.297L1253.2 381.987L1198.38 169.459Z" fill="white"/>
</mask>
<g mask="url(#mask9)">
<path fill-rule="evenodd" clip-rule="evenodd" d="M1206.95 268.234L1092.5 321.549L1017.65 337.123L1023.89 226.725C1023.89 226.725 1142.6 157.247 1145.32 156.418C1148.04 155.589 1224.81 155.589 1224.81 155.589L1206.95 268.234Z" fill="#D8D8D8"/>
<path fill-rule="evenodd" clip-rule="evenodd" d="M1032.5 329.731C1032.5 329.731 1084.97 307.638 1097.3 302.019C1109.64 296.4 1129.15 289.292 1141.86 287.143C1154.58 284.994 1165.66 280.085 1165.66 280.085C1165.66 280.085 1175.54 265.558 1179.41 263.644C1183.27 261.73 1202.37 254.482 1202.37 254.482L1200.18 289.99L1093.68 336.229L1030.44 343.072L1032.5 329.731Z" fill="#937272"/>
<path fill-rule="evenodd" clip-rule="evenodd" d="M1197.72 286.439C1197.72 286.439 1167.14 303.63 1162.85 304.402C1158.56 305.175 1032.33 339.92 1028.12 340.591C1023.92 341.261 838.792 390.413 838.792 390.413L824.987 407.319C824.987 407.319 829.829 410.764 818.822 412.973C807.814 415.181 720.794 440.67 711.926 446.114C703.059 451.559 692.404 456.601 689.725 458.163C687.046 459.724 657.907 467.197 653.704 468.662C649.5 470.127 550.406 490.572 545.421 492.209C540.437 493.847 512.843 497.08 509.215 498.049C505.586 499.017 451.396 510.404 451.396 510.404L397.411 545.512L393.05 565.661L772.764 503.204L1119.84 421.715L1228.09 365.63L1197.72 286.439Z" fill="#8D8D8D"/>
<path fill-rule="evenodd" clip-rule="evenodd" d="M484.523 496.564L505.508 494.971C505.508 494.971 544.459 481.563 547.813 481.018C551.167 480.472 561.695 477.689 568.218 476.348C574.742 475.007 595.711 470.485 599.67 468.93C603.63 467.375 621.757 458.373 624.017 458.059C626.277 457.745 643.939 447.302 643.939 447.302L514.82 467.419C514.82 467.419 491.365 474.105 489.028 476.348C486.691 478.59 484.523 494.971 484.523 494.971V496.564Z" fill="#D8D8D8"/>
</g>
<path fill-rule="evenodd" clip-rule="evenodd" d="M964.09 377.841C964.09 377.841 936.941 371.577 920.759 371.157C904.576 370.737 858.763 360.286 856.583 360.119C854.402 359.953 776.901 353.586 767.045 353.877C757.19 354.168 698.013 360.819 691.122 363.336C684.231 365.854 663.886 365.854 663.886 365.854L826.582 408.418C826.582 408.418 842.728 417.179 843.944 419.777C845.159 422.375 861.962 429.927 864.862 430.675C867.762 431.423 883.059 434.754 885.387 435.084C887.715 435.414 902.517 435.414 902.517 435.414L1105.47 392.716C1105.47 392.716 1042.13 389.545 1040.43 389.545C1038.72 389.545 989.325 386.059 989.325 386.059L964.09 377.841Z" fill="#29CDDF"/>
<mask id="mask10" mask-type="alpha" maskUnits="userSpaceOnUse" x="663" y="353" width="443" height="83">
<path fill-rule="evenodd" clip-rule="evenodd" d="M964.09 377.841C964.09 377.841 936.941 371.577 920.759 371.157C904.576 370.737 858.763 360.286 856.583 360.119C854.402 359.953 776.901 353.586 767.045 353.877C757.19 354.168 698.013 360.819 691.122 363.336C684.231 365.854 663.886 365.854 663.886 365.854L826.582 408.418C826.582 408.418 842.728 417.179 843.944 419.777C845.159 422.375 861.962 429.927 864.862 430.675C867.762 431.423 883.059 434.754 885.387 435.084C887.715 435.414 902.517 435.414 902.517 435.414L1105.47 392.716C1105.47 392.716 1042.13 389.545 1040.43 389.545C1038.72 389.545 989.325 386.059 989.325 386.059L964.09 377.841Z" fill="white"/>
</mask>
<g mask="url(#mask10)">
<path fill-rule="evenodd" clip-rule="evenodd" d="M964.613 376.352L825.744 406.947L847.106 488.088L1117.39 466.297L1253.2 381.987L964.613 376.352Z" fill="#229FAD"/>
</g>
<path fill-rule="evenodd" clip-rule="evenodd" d="M915.555 275.579H741.588V213.624H915.555V275.579Z" fill="#C0C0C0"/>
<mask id="mask11" mask-type="alpha" maskUnits="userSpaceOnUse" x="741" y="213" width="175" height="63">
<path fill-rule="evenodd" clip-rule="evenodd" d="M915.555 275.579H741.588V213.624H915.555V275.579Z" fill="white"/>
</mask>
<g mask="url(#mask11)">
<path fill-rule="evenodd" clip-rule="evenodd" d="M1065.47 296.716H994.66L841.212 274.728L915.183 212.931L1065.47 296.716Z" fill="#AAAAAA"/>
</g>
<path fill-rule="evenodd" clip-rule="evenodd" d="M621.12 303.449L741.588 275.579V213.624L414.427 291.676L294.09 351.599L500.565 303.449H621.12Z" fill="#CECECE"/>
<path fill-rule="evenodd" clip-rule="evenodd" d="M139.761 370.361L260.026 342.723L383.96 279.989L719.896 201.424V168.549L116.565 310.298L126.091 363.095L139.761 370.361Z" fill="#CECECE"/>
<path fill-rule="evenodd" clip-rule="evenodd" d="M657.666 51.0992L638.847 102.157H678.138C678.138 102.157 702.249 115.757 706.941 117.635C711.633 119.513 730.566 135.484 730.566 135.484L713.307 131.243C713.307 131.243 639.805 138.008 597.319 126.535C573.625 99.3612 657.666 51.0992 657.666 51.0992Z" fill="#26896D"/>
<path fill-rule="evenodd" clip-rule="evenodd" d="M716.249 91.1937L752.094 95.5944L761.869 84.5585L756.986 70.8143L752.094 58.5684L754.402 46.6461L756.986 53.1886L767.047 58.5684L775.514 66.6741L787.892 70.8143L803.296 71.1203C803.296 71.1203 810.224 79.2521 811.348 80.2312C812.472 81.2103 840.65 98.6961 840.65 98.6961H864.77H880.319C880.319 98.6961 890.552 106.548 887.865 107.186C885.178 107.825 864.445 106.417 862.304 107.825C860.164 109.232 815.331 111.133 811.348 111.641C807.366 112.15 805.04 113.998 798.193 118.355C791.346 122.712 787.709 125.031 781.612 125.2C775.514 125.37 748.7 122.349 748.7 122.349C748.7 122.349 737.45 107.186 734.642 107.186C731.833 107.186 716.249 91.1937 716.249 91.1937Z" fill="#26896D"/>
<path fill-rule="evenodd" clip-rule="evenodd" d="M798.925 47.8962C798.925 47.8962 802.24 40.3116 804.293 39.1541C806.346 37.9967 811.901 29.0344 812.782 26.417C813.663 23.7996 812.782 13.1151 812.782 13.1151L806.074 18.0963H791.27L779.639 13.1151C779.639 13.1151 776.873 14.6625 779.639 18.0963C782.406 21.5302 798.925 47.8962 798.925 47.8962Z" fill="#26896D"/>
</g>
<path fill-rule="evenodd" clip-rule="evenodd" d="M0.873535 466.765V271.869L141.52 304.576V370.829L211.913 388.295V420.523L247.006 429.119V449.815L300.048 462.638V486.477L335.677 509.171L359.631 526.389C359.631 526.389 369.129 531.441 371.828 531.626C374.527 531.811 382.394 533.458 382.394 533.458L398.559 554.392H374.249H351.32C351.32 554.392 330.201 550.764 328.818 550.34C327.434 549.916 308.248 545.077 308.248 545.077L297.074 541.179L282.855 533.458L0.873535 466.765Z" fill="#B0B0B0"/>
<mask id="mask12" mask-type="alpha" maskUnits="userSpaceOnUse" x="0" y="271" width="399" height="284">
<path fill-rule="evenodd" clip-rule="evenodd" d="M0.873535 466.765V271.869L141.52 304.576V370.829L211.913 388.295V420.523L247.006 429.119V449.815L300.048 462.638V486.477L335.677 509.171L359.631 526.389C359.631 526.389 369.129 531.441 371.828 531.626C374.527 531.811 382.394 533.458 382.394 533.458L398.559 554.392H374.249H351.32C351.32 554.392 330.201 550.764 328.818 550.34C327.434 549.916 308.248 545.077 308.248 545.077L297.074 541.179L282.855 533.458L0.873535 466.765Z" fill="white"/>
</mask>
<g mask="url(#mask12)">
<path fill-rule="evenodd" clip-rule="evenodd" d="M304.588 486.432L296.451 484.307L266.916 475.677L169.07 452.932C169.07 452.932 157.55 450.161 150.139 446.954C142.729 443.746 105.644 424.26 105.644 424.26L66.1479 404.981L21.8034 390.716L-0.654022 378.683L-7.74365 394.624C-7.74365 394.624 -5.76791 414.548 -3.21097 415.223C-0.654022 415.899 250.397 509.601 250.397 509.601H371.256L304.588 486.432Z" fill="#DBBE43"/>
<path fill-rule="evenodd" clip-rule="evenodd" d="M337.27 508.536H324.745L298.796 504.121L226.632 489.011L215.081 475.192L185.921 467.375L112.9 456.859L48.252 423.543L15.4592 416.605L-7.69321 407.685L-4.8226 477.341C-4.8226 477.341 391.743 580.032 393.968 580.163C396.193 580.294 409.004 558.969 409.004 558.969L373.502 516.112L337.27 508.536Z" fill="#545353"/>
</g>
<path fill-rule="evenodd" clip-rule="evenodd" d="M373.943 552.4V547.769L295.44 533.802V539.901V546.15L301.082 552.4L343.463 561.248L373.943 556.111V552.4Z" fill="#4B4B4B"/>
<path fill-rule="evenodd" clip-rule="evenodd" d="M373.992 545.393L351.144 540.763C351.144 540.763 296.78 533.111 295.489 532.894C294.198 532.677 295.489 539.144 295.489 539.144L301.13 545.393L343.512 554.241L373.992 549.104V545.393Z" fill="#676161"/>
<path fill-rule="evenodd" clip-rule="evenodd" d="M369.874 562.934V554.177L410.766 551.882V559.981L402.323 562.934H369.874Z" fill="#676161"/>
<path fill-rule="evenodd" clip-rule="evenodd" d="M369.874 554.735L375.202 549.565L402.323 545.978L410.766 551.782L402.323 554.735H369.874Z" fill="#8D8D8D"/>
<path fill-rule="evenodd" clip-rule="evenodd" d="M413.391 553.191C413.391 553.191 418.322 551.369 419.575 551.369C420.829 551.369 424.773 553.191 424.773 553.191V555.93L421.332 558.299C421.332 558.299 417.52 558.299 416.405 558.299C415.29 558.299 413.391 553.191 413.391 553.191Z" fill="#7F7F7F"/>
<path fill-rule="evenodd" clip-rule="evenodd" d="M358.867 564.089C358.867 564.089 353.751 565.297 352.507 565.144C351.262 564.991 347.57 562.702 347.57 562.702L347.904 559.984L351.608 558.051C351.608 558.051 355.392 558.516 356.499 558.651C357.605 558.787 358.867 564.089 358.867 564.089Z" fill="#7F7F7F"/>
<path fill-rule="evenodd" clip-rule="evenodd" d="M294.07 539.746C294.07 539.746 290.812 541.386 290.046 541.292C289.28 541.198 287.118 538.893 287.118 538.893L287.489 535.872L289.911 533.517C289.911 533.517 292.24 533.803 292.921 533.887C293.602 533.97 294.07 539.746 294.07 539.746Z" fill="#7F7F7F"/>
<path fill-rule="evenodd" clip-rule="evenodd" d="M294.409 544.129C294.409 544.129 295.58 547.972 295.266 548.676C294.952 549.381 291.56 550.528 291.56 550.528L287.946 548.919L285.681 545.592C285.681 545.592 286.635 543.449 286.914 542.822C287.193 542.195 294.409 544.129 294.409 544.129Z" fill="#7F7F7F"/>
</svg>
