<svg width="155" height="40" viewBox="0 0 155 40" fill="none" xmlns="http://www.w3.org/2000/svg">
<mask id="mask0" mask-type="alpha" maskUnits="userSpaceOnUse" x="54" y="0" width="45" height="22">
<path fill-rule="evenodd" clip-rule="evenodd" d="M64.8822 0.0262795C63.8617 0.0308445 62.7967 0.169521 61.8305 0.479693C56.9124 2.05807 54.014 6.04552 54.0036 11.1239C53.9968 14.4795 54.0014 17.8351 54.003 21.1908C54.0036 21.408 54.0233 21.6252 54.0331 21.8316H59.6131V16.4442H93.2403V21.8379H98.7835C98.7974 21.6467 98.8193 21.4865 98.8193 21.3258C98.8211 17.7631 98.8699 14.1992 98.7906 10.6383C98.765 9.50047 98.5639 8.31024 98.1606 7.24648C96.5623 3.02831 93.0248 0.0172729 87.9892 0.00999361C84.4426 0.00468836 80.8976 0 77.351 0C73.1951 0 69.038 0.00653903 64.8822 0.0262795ZM64.5451 5.49279C64.7559 5.47749 64.9674 5.47354 65.179 5.47354C72.6882 5.47243 80.1976 5.46675 87.7069 5.47576C90.2267 5.47872 92.2779 6.97061 93.0099 9.32898C93.1608 9.81472 93.1845 10.3376 93.2754 10.8976H59.6703C59.487 8.35812 61.9233 5.67724 64.5451 5.49279Z" fill="white"/>
</mask>
<g mask="url(#mask0)">
<path fill-rule="evenodd" clip-rule="evenodd" d="M53.3701 22.4548H99.4654V-0.61689H53.3701V22.4548Z" fill="black"/>
</g>
<mask id="mask1" mask-type="alpha" maskUnits="userSpaceOnUse" x="110" y="0" width="45" height="22">
<path fill-rule="evenodd" clip-rule="evenodd" d="M110.038 0H110L110.033 11.2412C110.193 15.395 112.236 18.5536 115.929 20.629C117.641 21.5916 119.557 21.8335 121.503 21.8346C128.639 21.8391 135.773 21.8396 142.909 21.8323C143.627 21.8311 144.348 21.7973 145.063 21.7319C150.188 21.2628 154.594 16.8717 154.777 11.8535L154.836 0.240217C154.836 0.164586 154.794 0.0890789 154.776 0.0276367H149.218L149.242 10.7524C149.318 13.3082 147.285 16.3998 143.461 16.3845C136.093 16.3552 128.725 16.3625 121.357 16.3822C118.106 16.3906 115.505 13.6308 115.597 10.7433C115.597 10.7433 115.622 0.262795 115.622 0H110.038Z" fill="white"/>
</mask>
<g mask="url(#mask1)">
<path fill-rule="evenodd" clip-rule="evenodd" d="M109.37 22.4548H155.465V-0.61689H109.37V22.4548Z" fill="black"/>
</g>
<path fill-rule="evenodd" clip-rule="evenodd" d="M28.7877 40C29.081 40 29.3725 39.957 29.6622 39.871C29.952 39.7849 30.2103 39.6523 30.4372 39.4731C30.6641 39.2939 30.8492 39.0663 30.9923 38.7903C31.1354 38.5143 31.207 38.1864 31.207 37.8065C31.207 37.4265 31.1407 37.1129 31.008 36.8656C30.8753 36.6183 30.7043 36.414 30.4948 36.2527C30.2854 36.0914 30.0497 35.9606 29.7879 35.8602C29.5261 35.7599 29.266 35.6667 29.0076 35.5806C28.7982 35.509 28.5975 35.4373 28.4055 35.3656C28.2134 35.2939 28.0424 35.2025 27.8923 35.0914C27.7422 34.9803 27.6217 34.8459 27.531 34.6882C27.4402 34.5305 27.3948 34.3297 27.3948 34.086C27.3948 33.8423 27.4419 33.6308 27.5362 33.4516C27.6304 33.2724 27.7544 33.1237 27.908 33.0054C28.0616 32.8871 28.2326 32.7993 28.4212 32.7419C28.6097 32.6846 28.7947 32.6559 28.9762 32.6559C29.3323 32.6559 29.636 32.7258 29.8874 32.8656C30.1387 33.0054 30.3447 33.19 30.5053 33.4194L31.1023 32.9247C30.9207 32.6738 30.6519 32.457 30.2958 32.2742C29.9397 32.0914 29.5104 32 29.0076 32C28.7353 32 28.4596 32.0394 28.1803 32.1183C27.901 32.1971 27.6462 32.3226 27.4157 32.4946C27.1853 32.6667 26.9986 32.8853 26.8554 33.1505C26.7123 33.4158 26.6407 33.7312 26.6407 34.0968C26.6407 34.4409 26.6983 34.7312 26.8135 34.9677C26.9288 35.2043 27.0806 35.4032 27.2691 35.5645C27.4576 35.7258 27.6706 35.8566 27.908 35.957C28.1454 36.0573 28.3862 36.147 28.6306 36.2258C28.868 36.3047 29.0949 36.3835 29.3114 36.4624C29.5278 36.5412 29.7198 36.6398 29.8874 36.7581C30.055 36.8763 30.1894 37.0233 30.2906 37.1989C30.3918 37.3746 30.4425 37.595 30.4425 37.8602C30.4425 38.1039 30.3918 38.3172 30.2906 38.5C30.1894 38.6828 30.0602 38.8369 29.9031 38.9624C29.746 39.0878 29.5697 39.181 29.3742 39.2419C29.1787 39.3029 28.9867 39.3333 28.7982 39.3333C28.4072 39.3333 28.0668 39.2419 27.7771 39.0591C27.4873 38.8763 27.2621 38.6487 27.1016 38.3763L26.4522 38.871C26.5849 39.0573 26.7385 39.2222 26.913 39.3656C27.0876 39.509 27.2761 39.6272 27.4786 39.7204C27.6811 39.8136 27.894 39.8835 28.1174 39.9301C28.3409 39.9767 28.5643 40 28.7877 40ZM3.46116 39.8065C3.92197 39.8065 4.38453 39.7276 4.84884 39.5699C5.31314 39.4122 5.73206 39.1738 6.1056 38.8548C6.47914 38.5358 6.78111 38.1398 7.01152 37.6667C7.24192 37.1935 7.35713 36.638 7.35713 36C7.35713 35.3692 7.24192 34.8154 7.01152 34.3387C6.78111 33.862 6.47914 33.4642 6.1056 33.1452C5.73206 32.8262 5.31314 32.5878 4.84884 32.4301C4.38453 32.2724 3.92197 32.1935 3.46116 32.1935H1V39.8065H3.46116ZM3.2517 39.1183H1.75406V32.8817H3.2517C3.81026 32.8817 4.29726 32.9713 4.71269 33.1505C5.12812 33.3297 5.47198 33.5645 5.74428 33.8548C6.01658 34.1452 6.2208 34.4767 6.35695 34.8495C6.4931 35.2222 6.56118 35.6057 6.56118 36C6.56118 36.3943 6.4931 36.7778 6.35695 37.1505C6.2208 37.5233 6.01658 37.8548 5.74428 38.1452C5.47198 38.4355 5.12812 38.6703 4.71269 38.8495C4.29726 39.0287 3.81026 39.1183 3.2517 39.1183ZM17.3131 32.1935V39.8065H16.5591V32.1935H17.3131ZM42.6397 32.8817V39.8065H41.8856V32.8817H39.4035V32.1935H45.1218V32.8817H42.6397ZM54.617 39.8065V36.2473H55.8737L57.9264 39.8065H58.8481L56.6802 36.1828C56.9525 36.1541 57.2038 36.0896 57.4342 35.9892C57.6646 35.8889 57.8636 35.7545 58.0312 35.586C58.1987 35.4176 58.3314 35.2186 58.4292 34.9892C58.5269 34.7599 58.5758 34.5054 58.5758 34.2258C58.5758 33.853 58.5129 33.5376 58.3873 33.2796C58.2616 33.0215 58.0853 32.8118 57.8584 32.6505C57.6315 32.4892 57.3627 32.3728 57.052 32.3011C56.7413 32.2294 56.4044 32.1935 56.0413 32.1935H53.8629V39.8065H54.617ZM54.617 35.5806H55.9261C56.5335 35.5806 57.0013 35.4677 57.3295 35.2419C57.6576 35.0161 57.8217 34.6774 57.8217 34.2258C57.8217 33.9749 57.7763 33.7634 57.6856 33.5914C57.5948 33.4194 57.4691 33.2796 57.3085 33.172C57.148 33.0645 56.9525 32.9857 56.7221 32.9355C56.4916 32.8853 56.2368 32.8602 55.9575 32.8602H54.617V35.5806ZM68.5213 39.8065V32.1935H67.7672V39.8065H68.5213ZM81.4726 39.6559C81.1305 39.7563 80.7465 39.8065 80.3206 39.8065H78.1212V32.1935H80.331C80.6103 32.1935 80.8931 32.224 81.1793 32.2849C81.4656 32.3459 81.7222 32.4498 81.9491 32.5968C82.176 32.7437 82.3611 32.9427 82.5042 33.1935C82.6473 33.4444 82.7189 33.7599 82.7189 34.1398C82.7189 34.5412 82.6002 34.8907 82.3628 35.1882C82.1254 35.4857 81.8077 35.681 81.4098 35.7742V35.7957C81.8915 35.853 82.2912 36.0448 82.6089 36.371C82.9266 36.6971 83.0854 37.1398 83.0854 37.6989C83.0854 38.0143 83.0209 38.3029 82.8917 38.5645C82.7625 38.8262 82.5792 39.0484 82.3419 39.2312C82.1045 39.414 81.8147 39.5556 81.4726 39.6559ZM80.3939 35.5269H78.8753V32.8602H80.1844C80.4288 32.8602 80.6592 32.8835 80.8756 32.9301C81.0921 32.9767 81.2806 33.0538 81.4412 33.1613C81.6018 33.2688 81.7292 33.4068 81.8234 33.5753C81.9177 33.7437 81.9648 33.9498 81.9648 34.1935C81.9648 34.4444 81.9177 34.6559 81.8234 34.828C81.7292 35 81.6052 35.138 81.4516 35.2419C81.298 35.3459 81.1287 35.4194 80.9437 35.4624C80.7587 35.5054 80.5754 35.5269 80.3939 35.5269ZM78.8753 39.1398H80.2787C80.551 39.1398 80.811 39.1129 81.0589 39.0591C81.3068 39.0054 81.5232 38.9194 81.7082 38.8011C81.8932 38.6828 82.0416 38.5287 82.1533 38.3387C82.265 38.1487 82.3209 37.9211 82.3209 37.6559C82.3209 37.1541 82.1551 36.7796 81.8234 36.5323C81.4918 36.2849 81.0222 36.1613 80.4148 36.1613H78.8753V39.1398ZM95.1465 40C95.6981 40 96.1537 39.9014 96.5132 39.7043C96.8728 39.5072 97.1573 39.2581 97.3668 38.957C97.5763 38.6559 97.7211 38.328 97.8014 37.9731C97.8817 37.6183 97.9219 37.2832 97.9219 36.9677V32.1935H97.1678V36.8817C97.1678 37.19 97.1329 37.4892 97.0631 37.7796C96.9933 38.0699 96.8798 38.328 96.7227 38.5538C96.5656 38.7796 96.3579 38.9624 96.0996 39.1022C95.8412 39.2419 95.5235 39.3118 95.1465 39.3118C94.7695 39.3118 94.4518 39.2419 94.1935 39.1022C93.9351 38.9624 93.7274 38.7796 93.5703 38.5538C93.4132 38.328 93.2998 38.0699 93.2299 37.7796C93.1601 37.4892 93.1252 37.19 93.1252 36.8817V32.1935H92.3712V36.9677C92.3712 37.2832 92.4113 37.6183 92.4916 37.9731C92.5719 38.328 92.7168 38.6559 92.9262 38.957C93.1357 39.2581 93.4185 39.5072 93.7746 39.7043C94.1306 39.9014 94.588 40 95.1465 40ZM109.857 32.8817V39.8065H109.103V32.8817H106.621V32.1935H112.339V32.8817H109.857ZM121.835 39.8065V32.1935H121.081V39.8065H121.835ZM136.435 39.6989C135.964 39.8996 135.453 40 134.901 40C134.349 40 133.838 39.8996 133.367 39.6989C132.895 39.4982 132.487 39.2204 132.141 38.8656C131.796 38.5108 131.525 38.0896 131.33 37.6022C131.134 37.1147 131.036 36.5806 131.036 36C131.036 35.4194 131.134 34.8853 131.33 34.3978C131.525 33.9104 131.796 33.4892 132.141 33.1344C132.487 32.7796 132.895 32.5018 133.367 32.3011C133.838 32.1004 134.349 32 134.901 32C135.453 32 135.964 32.1004 136.435 32.3011C136.907 32.5018 137.315 32.7796 137.661 33.1344C138.006 33.4892 138.277 33.9104 138.472 34.3978C138.668 34.8853 138.766 35.4194 138.766 36C138.766 36.5806 138.668 37.1147 138.472 37.6022C138.277 38.0896 138.006 38.5108 137.661 38.8656C137.315 39.2204 136.907 39.4982 136.435 39.6989ZM134.901 39.3118C134.426 39.3118 133.999 39.2222 133.618 39.043C133.238 38.8638 132.915 38.6237 132.649 38.3226C132.384 38.0215 132.182 37.6703 132.042 37.2688C131.902 36.8674 131.832 36.4444 131.832 36C131.832 35.5556 131.902 35.1326 132.042 34.7312C132.182 34.3297 132.384 33.9767 132.649 33.672C132.915 33.3674 133.238 33.1254 133.618 32.9462C133.999 32.767 134.426 32.6774 134.901 32.6774C135.376 32.6774 135.803 32.767 136.184 32.9462C136.565 33.1254 136.887 33.3674 137.153 33.672C137.418 33.9767 137.621 34.3297 137.76 34.7312C137.9 35.1326 137.97 35.5556 137.97 36C137.97 36.4444 137.9 36.8674 137.76 37.2688C137.621 37.6703 137.418 38.0215 137.153 38.3226C136.887 38.6237 136.565 38.8638 136.184 39.043C135.803 39.2222 135.376 39.3118 134.901 39.3118ZM148.743 33.2581H148.722V39.8065H147.968V32.1935H148.91L153.225 38.6774H153.246V32.1935H154V39.8065H153.057L148.743 33.2581Z" fill="black"/>
<path fill-rule="evenodd" clip-rule="evenodd" d="M0 0V5.49208H19.2296L19.2307 22H24.7632L24.7626 5.46374H44V0H0Z" fill="black"/>
<path d="M0 32H155" stroke="white"/>
</svg>
