<svg width="31" height="31" viewBox="0 0 31 31" fill="none" xmlns="http://www.w3.org/2000/svg">
<path fill-rule="evenodd" clip-rule="evenodd" d="M12.9282 17.5021V31H0V20.3438C0 14.5743 0.714506 10.3979 2.14354 7.81458C4.01915 4.37012 6.98882 1.76529 11.0526 0L14 4.52083C11.5438 5.51112 9.73525 6.98575 8.57416 8.94479C7.41307 10.9038 6.76555 13.7562 6.63158 17.5021H12.9282Z" fill="#4DBB91"/>
<path fill-rule="evenodd" clip-rule="evenodd" d="M29.9282 17.5021V31H17V20.3438C17 14.5743 17.7145 10.3979 19.1435 7.81458C21.0191 4.37012 23.9888 1.76529 28.0526 0L31 4.52083C28.5438 5.51112 26.7353 6.98575 25.5742 8.94479C24.4131 10.9038 23.7656 13.7562 23.6316 17.5021H29.9282Z" fill="#4DBB91"/>
</svg>
