<svg width="31" height="31" viewBox="0 0 31 31" fill="none" xmlns="http://www.w3.org/2000/svg">
<path fill-rule="evenodd" clip-rule="evenodd" d="M18.0718 13.4979V0H31V10.6562C31 16.4257 30.2855 20.6021 28.8565 23.1854C26.9809 26.6299 24.0112 29.2347 19.9474 31L17 26.4792C19.4562 25.4889 21.2647 24.0142 22.4258 22.0552C23.5869 20.0962 24.2344 17.2438 24.3684 13.4979H18.0718Z" fill="#4DBB91"/>
<path fill-rule="evenodd" clip-rule="evenodd" d="M1.07177 13.4979V0H14V10.6562C14 16.4257 13.2855 20.6021 11.8565 23.1854C9.98085 26.6299 7.01118 29.2347 2.94737 31L0 26.4792C2.45615 25.4889 4.26475 24.0142 5.42584 22.0552C6.58693 20.0962 7.23445 17.2438 7.36842 13.4979H1.07177Z" fill="#4DBB91"/>
</svg>
