<svg width="116" height="109" viewBox="0 0 116 109" fill="none" xmlns="http://www.w3.org/2000/svg">
<ellipse cx="49.1996" cy="65.4829" rx="41.6" ry="42.1591" stroke="#3744C6" stroke-width="2"/>
<ellipse cx="49.9996" cy="65.8844" rx="26.4" ry="26.5" stroke="#3744C6" stroke-width="2"/>
<path fill-rule="evenodd" clip-rule="evenodd" d="M84.9336 23.2702L92.8532 31.2198L66.266 57.9077L58.3464 49.9581L84.9336 23.2702Z" fill="white"/>
<ellipse cx="49.9998" cy="65.0814" rx="11.2" ry="11.2424" stroke="#379D80" stroke-width="2"/>
<circle cx="49.7998" cy="65.3238" r="3" stroke="#379D80" stroke-width="2"/>
<path d="M87.3913 105.657L87.5022 104.663L87.3913 105.657ZM79.8919 104.82L79.2356 104.066L77.5162 105.561L79.781 105.814L79.8919 104.82ZM94.6495 96.0575L93.7235 96.4351L94.6495 96.0575ZM91.8444 89.1776L92.7704 88.8L91.9215 86.718L90.9438 88.7428L91.8444 89.1776ZM87.5022 104.663L80.0028 103.827L79.781 105.814L87.2804 106.651L87.5022 104.663ZM93.7235 96.4351C95.4419 100.65 92.0256 105.168 87.5022 104.663L87.2804 106.651C93.3116 107.324 97.8667 101.3 95.5754 95.68L93.7235 96.4351ZM90.9184 89.5551L93.7235 96.4351L95.5754 95.68L92.7704 88.8L90.9184 89.5551ZM90.9438 88.7428C88.1036 94.6255 84.1005 99.8343 79.2356 104.066L80.5482 105.575C85.6159 101.167 89.7858 95.7411 92.7449 89.6124L90.9438 88.7428Z" fill="#3337CC"/>
<path d="M9.77768 105.657L9.66679 104.663L9.77768 105.657ZM17.277 104.82L17.9333 104.066L19.6528 105.561L17.3879 105.814L17.277 104.82ZM2.51949 96.0575L3.44548 96.4351L2.51949 96.0575ZM5.32458 89.1776L4.39859 88.8L5.24749 86.718L6.22511 88.7428L5.32458 89.1776ZM9.66679 104.663L17.1661 103.827L17.3879 105.814L9.88858 106.651L9.66679 104.663ZM3.44548 96.4351C1.72708 100.65 5.14336 105.168 9.66679 104.663L9.88858 106.651C3.85734 107.324 -0.697706 101.3 1.5935 95.68L3.44548 96.4351ZM6.25057 89.5551L3.44548 96.4351L1.5935 95.68L4.39859 88.8L6.25057 89.5551ZM6.22511 88.7428C9.06539 94.6255 13.0685 99.8343 17.9333 104.066L16.6207 105.575C11.5531 101.167 7.38311 95.7411 4.42405 89.6124L6.22511 88.7428Z" fill="#3337CC"/>
<path d="M51.7998 63.3238L102.984 12.827" stroke="#379D80" stroke-width="2"/>
<path fill-rule="evenodd" clip-rule="evenodd" d="M87.0928 28.8432V20.03L104.452 3L102.984 12.827L112.371 10.9196L95.1486 28.1423L87.0928 28.8432Z" stroke="#379D80" stroke-width="2"/>
</svg>
