<svg width="117" height="100" viewBox="0 0 117 100" fill="none" xmlns="http://www.w3.org/2000/svg">
<path d="M35.1219 98.1963V99.1963H35.6133L35.9135 98.8073L35.1219 98.1963ZM62.3629 62.8985L63.1546 62.2875L62.3629 61.2617L61.5713 62.2875L62.3629 62.8985ZM3 98.1963L2.23985 97.5465L0.829718 99.1963H3V98.1963ZM30.8172 65.6523L31.7811 65.3859L31.2798 63.572L30.0571 65.0025L30.8172 65.6523ZM32.2858 70.966L31.3219 71.2324L31.8086 72.9933L33.0296 71.6344L32.2858 70.966ZM59.9336 40.1963L60.7275 39.5882L59.9949 38.6319L59.1898 39.5279L59.9336 40.1963ZM74 58.5599L74.7917 59.1708L75.2614 58.5621L74.7939 57.9518L74 58.5599ZM66.5073 68.2686L65.7156 68.8795L66.5073 69.9053L67.299 68.8795L66.5073 68.2686ZM114 98.1963V99.1963H116.043L114.79 97.583L114 98.1963ZM82.9391 58.1963L83.729 57.583L82.9391 56.5658L82.1493 57.583L82.9391 58.1963ZM43 98.1963L42.2106 97.5824L40.9554 99.1963H43V98.1963ZM62.6622 72.9155L63.4521 72.3022L62.6628 71.2859L61.8729 72.3016L62.6622 72.9155ZM67.0858 78.6121L66.2959 79.2255L67.0858 80.2426L67.8756 79.2255L67.0858 78.6121ZM35.9135 98.8073L63.1546 63.5095L61.5713 62.2875L34.3302 97.5853L35.9135 98.8073ZM3 99.1963H35.1219V97.1963H3V99.1963ZM30.0571 65.0025L2.23985 97.5465L3.76015 98.846L31.5774 66.302L30.0571 65.0025ZM33.2497 70.6996L31.7811 65.3859L29.8533 65.9186L31.3219 71.2324L33.2497 70.6996ZM59.1898 39.5279L31.542 70.2977L33.0296 71.6344L60.6775 40.8647L59.1898 39.5279ZM74.7939 57.9518L60.7275 39.5882L59.1398 40.8044L73.2061 59.168L74.7939 57.9518ZM67.299 68.8795L74.7917 59.1708L73.2083 57.9489L65.7156 67.6576L67.299 68.8795ZM61.5713 63.5095L65.7156 68.8795L67.299 67.6576L63.1546 62.2875L61.5713 63.5095ZM114.79 97.583L83.729 57.583L82.1493 58.8096L113.21 98.8096L114.79 97.583ZM43 99.1963H114V97.1963H43V99.1963ZM61.8729 72.3016L42.2106 97.5824L43.7894 98.8102L63.4516 73.5295L61.8729 72.3016ZM67.8756 77.9988L63.4521 72.3022L61.8724 73.5288L66.2959 79.2255L67.8756 77.9988ZM82.1493 57.583L66.2959 77.9988L67.8756 79.2255L83.729 58.8096L82.1493 57.583Z" fill="#353EC9"/>
<path d="M77.2905 9.53573L84.1909 16.6822H62.708V1H84.1909L77.2905 8.14651L76.6198 8.84112L77.2905 9.53573Z" stroke="#319E80" stroke-width="2"/>
<path d="M58.6104 32.4883V0" stroke="#379D80" stroke-width="2"/>
</svg>
