<svg width="146" height="126" viewBox="0 0 146 126" fill="none" xmlns="http://www.w3.org/2000/svg">
<path d="M18.9685 68.5676L40.838 39.4615H106.767L128.636 68.5676L73.8023 123.583L18.9685 68.5676Z" stroke="#3744C6" stroke-width="2"/>
<mask id="mask0" mask-type="alpha" maskUnits="userSpaceOnUse" x="17" y="38" width="113" height="87">
<path d="M18.9685 68.5676L40.838 39.4615H106.767L128.636 68.5676L73.8023 123.583L18.9685 68.5676Z" fill="white" stroke="white" stroke-width="2"/>
</mask>
<g mask="url(#mask0)">
<path d="M18.4863 68.0011H127.603" stroke="#3744C6" stroke-width="2"/>
<path d="M58.7693 37.6295L47.8203 67.1523L75.4782 126.664" stroke="#3744C6" stroke-width="2"/>
<path d="M89.6731 37.6295L100.622 67.1523L72.9642 126.664" stroke="#3744C6" stroke-width="2"/>
</g>
<path d="M63.0391 14.0224C67.6776 12.3235 71.3286 8.58186 72.9997 3.84479C74.6707 8.58186 78.3217 12.3235 82.9602 14.0224C78.3217 15.7214 74.6707 19.463 72.9997 24.2001C71.3286 19.463 67.6776 15.7214 63.0391 14.0224Z" stroke="#319E80" stroke-width="2"/>
<path d="M3.67684 34.0545C8.31532 32.3555 11.9663 28.6139 13.6374 23.8768C15.3084 28.6139 18.9594 32.3556 23.5979 34.0545C18.9594 35.7534 15.3084 39.4951 13.6374 44.2321C11.9663 39.4951 8.31532 35.7534 3.67684 34.0545Z" stroke="#319E80" stroke-width="2"/>
<path d="M122.402 34.0545C127.041 32.3555 130.692 28.6139 132.363 23.8768C134.034 28.6139 137.685 32.3556 142.323 34.0545C137.685 35.7534 134.034 39.4951 132.363 44.2321C130.692 39.4951 127.041 35.7534 122.402 34.0545Z" stroke="#319E80" stroke-width="2"/>
</svg>
