<?xml version="1.0" encoding="UTF-8"?>
<svg width="47px" height="44px" viewBox="0 0 47 44" version="1.1" xmlns="http://www.w3.org/2000/svg" xmlns:xlink="http://www.w3.org/1999/xlink">
    <!-- Generator: Sketch 61 (89581) - https://sketch.com -->
    <title>Combined Shape</title>
    <desc>Created with Sketch.</desc>
    <g id="Page-1" stroke="none" stroke-width="1" fill="none" fill-rule="evenodd">
        <g id="Где-используют-1" transform="translate(-46.000000, -529.000000)" fill="#07AD68">
            <g id="Group-11" transform="translate(27.000000, 509.000000)">
                <path d="M32.1210917,20 L59.3325116,29.3401693 L63.8803983,23.7501628 L64.9688714,23.9135742 C66.1720917,27.8905648 66.3222869,31.5949105 65.419457,35.0266113 C64.6358622,38.0050939 62.7992423,40.7109316 59.9095974,43.1441243 L59.9095974,57.9740397 L61.2319735,57.9740397 L61.2319735,58.8795573 L60.5382627,58.8795573 L60.5382627,64 L23.7495525,64 L23.7495525,51.8157552 L22.1225149,49.9414063 L23.3215737,48.706543 L19,43.9845378 C20.3802397,42.7587891 21.9634239,42.335612 23.7495525,42.7150065 C24.9098524,42.9614677 25.9735424,43.7057711 26.9406224,44.9479167 L28.9997194,28.5069987 L28.679633,26.3588867 L29.951001,24.9943034 L29.951001,22.1811523 L32.1210917,20 Z M34.2330972,24 L32.9416371,25.0839278 C33.9890672,25.8543259 34.3109865,26.7770175 33.907395,27.8520026 C33.4567238,29.0523863 32.7409567,29.5963495 31.7600935,29.4838923 L31.7600935,29.4838923 L30.1346776,43.3693752 L31.7600935,41.7952478 L32.415228,42.5510886 C31.8490284,42.9858842 31.7720736,43.4905997 32.1843635,44.0652351 C32.6075225,44.6550193 33.1818663,44.7222581 33.907395,44.2669515 L33.907395,44.2669515 L34.5033253,44.9499115 L30.8067955,48.4739914 C32.1535414,49.488438 32.8990429,50.7293019 33.0433,52.1965832 C33.2308592,54.1043027 32.6876782,55.7837389 31.4137572,57.2348918 L31.4137572,57.2348918 L30,55.6083428 L30,62 L38.1798558,62 L45,30.3131891 C44.52048,30.1713271 44.1588532,29.8413229 43.9151195,29.3231765 C43.6512669,28.7622598 43.6512669,28.1378017 43.9151195,27.4498023 L43.9151195,27.4498023 L34.2330972,24 Z M47.4321062,28.7659505 C47.3202536,29.1726428 47.1857009,29.4752958 47.0284481,29.6739095 C46.825604,29.9301058 46.6069961,30.1140526 46.3726241,30.2257499 L46.2301093,30.2840983 L53.3062047,61.6978353 L56.5934964,61.6978353 L56.5934964,59.1942546 L58.483736,59.1942546 L58.483736,58.8584798 L57.7648067,58.8584798 L57.7648067,58.0008138 L59.1558194,58.0008138 L59.1558194,43.4203288 L58.927711,43.0541178 L58.2480376,32.4996745 L47.4321062,28.7659505 Z M58.4458676,60.3333333 L57.7772935,60.3333333 L57.7772935,61.6666667 L58.4458676,61.6666667 L58.4458676,60.3333333 Z M49.8655622,53.8738607 L41.1718147,53.8738607 L40.6917668,57.1003418 L50.3989034,57.1003418 L49.8655622,53.8738607 Z M30,53 C29.4477153,53 29,53.4477153 29,54 C29,54.5522847 29.4477153,55 30,55 C30.5522847,55 31,54.5522847 31,54 C31,53.4477153 30.5522847,53 30,53 Z M49.098318,49.0599772 L41.9968409,49.0599772 L41.5088765,52.1086426 L49.6048085,52.1086426 L49.098318,49.0599772 Z M48.399792,44.8107096 L42.5672344,44.8107096 L42.2097285,47.2624512 L48.8187933,47.2624512 L48.399792,44.8107096 Z M23,44 C22.4477153,44 22,44.4477153 22,45 C22,45.5522847 22.4477153,46 23,46 C23.5522847,46 24,45.5522847 24,45 C24,44.4477153 23.5522847,44 23,44 Z M29.1937176,29 L27,45 L27.8991048,44.2476909 L30,29.3300232 L29.1937176,29 Z M47.5177182,39.3330078 L43.5631584,39.3330078 L42.9629761,43.0680339 L48.1683374,43.0680339 L47.5177182,39.3330078 Z M61.5,37 C60.6715729,37 60,37.6715729 60,38.5 C60,39.3284271 60.6715729,40 61.5,40 C62.3284271,40 63,39.3284271 63,38.5 C63,37.6715729 62.3284271,37 61.5,37 Z M63,32 C61.8954305,32 61,32.8954305 61,34 C61,35.1045695 61.8954305,36 63,36 C64.1045695,36 65,35.1045695 65,34 C65,32.8954305 64.1045695,32 63,32 Z M32.1364438,21 L32,21.4064588 L58.8919751,31 L59,30.6262635 L32.1364438,21 Z M46,28 C45.4477153,28 45,28.4477153 45,29 C45,29.5522847 45.4477153,30 46,30 C46.5522847,30 47,29.5522847 47,29 C47,28.4477153 46.5522847,28 46,28 Z M64,26 C63.4477153,26 63,26.4477153 63,27 C63,27.5522847 63.4477153,28 64,28 C64.5522847,28 65,27.5522847 65,27 C65,26.4477153 64.5522847,26 64,26 Z" id="Combined-Shape"></path>
            </g>
        </g>
    </g>
</svg>