<svg width="98" height="96" viewBox="0 0 98 96" fill="none" xmlns="http://www.w3.org/2000/svg">
<path fill-rule="evenodd" clip-rule="evenodd" d="M28.5398 95.9013H25.9111L26.4072 61.4171C26.1165 61.3018 25.9111 61.0199 25.9111 60.6903V58.6037C25.9111 58.1716 26.2642 57.8212 26.6997 57.8212H27.7512C28.1867 57.8212 28.5398 58.1716 28.5398 58.6037V60.6903C28.5398 61.0199 28.3344 61.3018 28.0437 61.4171L28.5398 95.9013ZM27.2254 59.9078C27.661 59.9078 28.014 59.5575 28.014 59.1253C28.014 58.6932 27.661 58.3429 27.2254 58.3429C26.7899 58.3429 26.4369 58.6932 26.4369 59.1253C26.4369 59.5575 26.7899 59.9078 27.2254 59.9078Z" fill="#24E595"/>
<path fill-rule="evenodd" clip-rule="evenodd" d="M27.0032 58.9536L26.8106 57.0421L25.364 55.0528C25.364 55.0528 26.3663 37.0066 27.113 35.866L27.3815 58.913L29.1016 59.7147L31.5058 59.4518C31.5058 59.4518 46.3756 69.5136 46.9796 70.7516L27.2634 59.2865L25.7609 60.3761L24.8032 62.6282C24.8032 62.6282 8.93117 70.6127 7.58044 70.5152L27.0372 58.9691L27.0032 58.9536Z" fill="#24E595"/>
<path fill-rule="evenodd" clip-rule="evenodd" d="M69.8718 91.8799H66.8223L67.3977 51.3703C67.0605 51.2349 66.8223 50.9036 66.8223 50.5165V48.0653C66.8223 47.5577 67.2319 47.1461 67.7371 47.1461H68.957C69.4622 47.1461 69.8718 47.5577 69.8718 48.0653V50.5165C69.8718 50.9036 69.6336 51.2349 69.2964 51.3703L69.8718 91.8799ZM68.347 49.5973C68.8523 49.5973 69.2619 49.1858 69.2619 48.6781C69.2619 48.1704 68.8523 47.7589 68.347 47.7589C67.8418 47.7589 67.4322 48.1704 67.4322 48.6781C67.4322 49.1858 67.8418 49.5973 68.347 49.5973Z" fill="#24E595"/>
<path fill-rule="evenodd" clip-rule="evenodd" d="M68.4222 48.1979L70.5918 48.8003L73.377 48.0226C73.377 48.0226 92.6659 56.8903 93.5958 58.221L68.2854 48.6337L68.3321 48.8026L66.725 50.3717L66.011 53.1629C66.011 53.1629 48.6691 65.3547 47.0474 65.4901L68.1993 48.3219L68.2211 48.4006L68.3012 48.3198L67.9343 48.2242L67.3718 46.0526L65.3006 44.0392C65.3006 44.0392 63.3536 22.9797 64.0454 21.5136L68.3979 48.2224L68.4222 48.1979Z" fill="#24E595"/>
<path fill-rule="evenodd" clip-rule="evenodd" d="M48.6343 93.6598H44.792L45.5171 39.3249C45.0922 39.1432 44.792 38.6989 44.792 38.1796V34.8919C44.792 34.211 45.3081 33.659 45.9447 33.659H47.4816C48.1183 33.659 48.6343 34.211 48.6343 34.8919V38.1796C48.6343 38.6989 48.3342 39.1432 47.9093 39.3249L48.6343 93.6598ZM46.7132 36.9467C47.3498 36.9467 47.8659 36.3947 47.8659 35.7138C47.8659 35.0329 47.3498 34.4809 46.7132 34.4809C46.0765 34.4809 45.5605 35.0329 45.5605 35.7138C45.5605 36.3947 46.0765 36.9467 46.7132 36.9467Z" fill="#24E595"/>
<path fill-rule="evenodd" clip-rule="evenodd" d="M46.233 34.9637L46.7172 31.987L45.333 28.3829C45.333 28.3829 54.1781 1.4261 55.7725 0L46.7976 35.1539L49.0131 36.9953L52.7853 37.5826C52.7853 37.5826 71.4004 58.8234 71.822 60.9357L46.4052 35.6207L43.8633 36.5909L41.4753 39.6077C41.4753 39.6077 14.015 45.3238 11.999 44.6376L46.284 35.0059L46.233 34.9637Z" fill="#24E595"/>
</svg>
