<svg width="105" height="63" viewBox="0 0 105 63" fill="none" xmlns="http://www.w3.org/2000/svg">
<path fill-rule="evenodd" clip-rule="evenodd" d="M27.0983 44.0253C27.1249 43.8172 17.1001 6.07093 17.1001 6.07093H26.797V8.29544H22.2641L30.6961 44.0253C30.6961 44.0253 33.1285 44.4186 37.2504 49.332L28.7742 14.3676H73.8985L80.9542 44.0253C80.9542 44.0253 84.8733 43.8953 86.8782 45.4935L77.8374 8.29544H72.8418V6.07596H80.9201L91.1855 47.8755C91.1855 47.8755 93.6714 51.3318 95.749 47.9848L84.6769 1.32178H68.3347V8.29544H31.1092V1.32178H7.19658C7.19658 1.32178 7.19658 43.2531 7.19658 47.395C9.04182 47.4105 9.79705 50.2239 11.471 50.2239C13.145 50.2239 14.5209 44.0253 27.0983 44.0253Z" fill="#07AD68"/>
<path fill-rule="evenodd" clip-rule="evenodd" d="M1.90948 55.0561C1.90948 52.8819 4.23184 51.4116 7.2196 52.8971C10.2074 54.3827 10.5999 55.9924 15.564 53.3322C20.5282 50.6721 22.6268 47.2777 29.5763 49.9379C36.5259 52.598 34.8284 54.9682 39.243 54.9682C43.6576 54.9682 41.3755 53.3322 45.8917 51.3083C45.8917 51.3083 40.9361 26.76 37.1116 26.9884V21.147H42.9468C42.9468 21.147 50.7076 31.0716 53.0378 49.5462C53.0378 49.5462 56.1718 48.9437 57.297 50.3062C57.297 50.3062 55.7019 32.5378 48.9818 26.5662V21.147H55.1021C55.1021 21.147 63.5904 33.9035 65.2943 55.0561C65.2943 55.0561 67.5423 55.7383 69.9706 53.8175C69.9706 53.8175 66.3779 29.7766 61.1374 26.806C61.1374 26.806 61.1374 21.9974 61.1374 21.5722H67.2656C67.2656 21.5722 74.8773 31.6611 76.7635 49.5415C76.7635 49.5415 83.2887 47.9525 88.2615 52.0841C93.2343 56.2158 94.9568 55.8402 98.0771 52.8971C101.197 49.9541 105.221 53.5662 103.074 56.5568C100.926 59.5475 97.7361 60.8784 91.5552 60.2796C85.3742 59.6807 84.564 54.8802 79.6903 54.9682C74.8166 55.0561 76.1229 60.0717 67.2656 60.2796C58.4084 60.4874 57.7271 56.1188 55.1021 54.9682C52.4772 53.8175 49.695 54.9409 46.9922 57.6102C44.2894 60.2796 36.0161 62.6067 32.151 58.7875C28.2859 54.9682 23.8311 53.2434 20.6638 56.5568C17.4965 59.8703 15.2826 61.022 10.1644 60.2796C5.04627 59.5371 1.90948 57.2303 1.90948 55.0561Z" fill="#07AD68"/>
</svg>
