<svg width="101" height="76" viewBox="0 0 101 76" fill="none" xmlns="http://www.w3.org/2000/svg">
<path fill-rule="evenodd" clip-rule="evenodd" d="M82.7814 1.82715H16.2924L0.762695 59.9957H0.779787L0.762695 60.0554V64.0028H45.4719V71.7165H33.7287V74.4213H63.5384V71.7165H51.6948V64.0028H98.311V60.0554L98.294 59.9957H98.311L82.7814 1.82715Z" fill="#07AD68"/>
<path fill-rule="evenodd" clip-rule="evenodd" d="M31.4837 4.85181H20.0512L17.8513 6.43705L15.3781 16.0806L16.9575 17.6659H29.6184L31.8114 16.0806L33.0702 6.43705L31.4837 4.85181ZM47.668 4.85181H36.2355L34.2412 6.43705L33.0189 16.0806L34.804 17.6659H47.4649L49.4522 16.0806L49.46 6.43705L47.668 4.85181ZM52.1619 4.85181H63.5944L65.5887 6.43705L66.811 16.0806L65.0259 17.6659H52.365L50.3777 16.0806L50.3698 6.43705L52.1619 4.85181ZM79.7786 4.85181H68.3461L66.7597 6.43705L68.0185 16.0806L70.2114 17.6659H82.8723L84.4518 16.0806L81.9785 6.43705L79.7786 4.85181ZM16.8888 18.6645H29.577L31.3604 20.2497L30.1016 29.8933L27.7117 31.4785H13.7951L12.0187 29.8933L14.4919 20.2497L16.8888 18.6645ZM47.4604 18.6645H34.7722L32.581 20.2497L31.3587 29.8933L33.3407 31.4785H47.2573L49.4416 29.8933L49.4494 20.2497L47.4604 18.6645ZM52.3695 18.6645H65.0577L67.2489 20.2497L68.4712 29.8933L66.4891 31.4785H52.5726L50.3883 29.8933L50.3805 20.2497L52.3695 18.6645ZM82.9411 18.6645H70.2529L68.4695 20.2497L69.7283 29.8933L72.1182 31.4785H86.0348L87.8112 29.8933L85.338 20.2497L82.9411 18.6645ZM13.7263 32.4771H27.6702L29.6506 34.0624L28.3918 43.7059L25.8049 45.2912H10.6326L8.65923 43.7059L11.1325 34.0624L13.7263 32.4771ZM47.2528 32.4771H33.3089L30.9207 34.0624L29.6984 43.7059L31.8775 45.2912H47.0497L49.431 43.7059L49.4388 34.0624L47.2528 32.4771ZM52.5771 32.4771H66.5209L68.9091 34.0624L70.1314 43.7059L67.9524 45.2912H52.7801L50.3989 43.7059L50.3911 34.0624L52.5771 32.4771ZM86.1035 32.4771H72.1597L70.1793 34.0624L71.4381 43.7059L74.025 45.2912H89.1973L91.1707 43.7059L88.6974 34.0624L86.1035 32.4771ZM10.5639 46.2898H25.7634L27.9408 47.875L26.682 57.5186L23.8981 59.1038H7.47017L5.2998 57.5186L7.77307 47.875L10.5639 46.2898ZM47.0452 46.2898H31.8457L29.2605 47.875L28.0382 57.5186L30.4142 59.1038H46.8421L49.4204 57.5186L49.4282 47.875L47.0452 46.2898ZM52.7847 46.2898H67.9842L70.5694 47.875L71.7917 57.5186L69.4157 59.1038H52.9877L50.4095 57.5186L50.4017 47.875L52.7847 46.2898ZM89.266 46.2898H74.0664L71.8891 47.875L73.1479 57.5186L75.9318 59.1038H92.3597L94.5301 57.5186L92.0568 47.875L89.266 46.2898Z" fill="white"/>
</svg>
