<svg width="70" height="63" viewBox="0 0 70 63" fill="none" xmlns="http://www.w3.org/2000/svg">
<path fill-rule="evenodd" clip-rule="evenodd" d="M10.2 56.8648H12.0565V49.7993H10.9453V48.125H46.0052V49.6369C46.0052 49.6369 45.715 49.6369 45.1347 49.6369C45.1347 49.6369 45.1347 52.0668 45.1347 56.9267C45.1347 56.9267 45.768 56.9267 47.0344 56.9267C47.0344 56.9267 47.0344 55.2231 47.0344 51.8161C47.0344 51.8161 47.3916 51.8161 48.106 51.8161C48.106 51.8161 48.106 49.9204 48.106 46.129C48.106 46.129 47.7488 46.129 47.0344 46.129C47.0344 46.129 47.0344 43.7701 47.0344 39.0523C47.0344 39.0523 47.3916 39.0523 48.106 39.0523C48.106 39.0523 48.106 36.0635 48.106 30.0859C48.106 28.8936 46.8867 26.9319 45.2145 26.9319C44.0997 26.9319 42.0781 26.9319 39.1499 26.9319C39.1499 26.9319 39.1499 27.7706 39.1499 29.4481C39.1499 29.4481 38.387 29.4481 36.8612 29.4481C36.8612 29.4481 36.8612 29.9549 36.8612 30.9684C36.2348 31.1444 35.6373 31.8014 35.0689 32.9395C35.0689 32.9395 35.0689 33.2771 35.0689 33.9522C35.0689 33.9522 34.8563 33.9522 34.4312 33.9522C34.4312 33.9522 34.2711 33.5785 33.9507 32.8312C33.9507 32.8312 33.9507 32.3136 33.9507 31.2783C33.9507 31.2783 33.7025 31.2783 33.2062 31.2783C33.2062 31.2783 33.2062 30.8808 33.2062 30.0859C33.2062 30.0859 33.4637 30.0859 33.9786 30.0859C33.9786 30.0859 33.9786 29.051 33.9786 26.9811C33.9786 26.9811 32.6073 26.9811 29.8647 26.9811C29.8647 26.9811 29.8647 26.064 29.8647 24.2297C29.8647 24.2297 34.7306 24.2297 44.4622 24.2297C48.4903 24.2297 50.8742 26.9837 50.8742 30.1521C50.8742 32.2644 50.8742 33.9214 50.8742 35.1232H53.3054L53.9155 13.2075H57.661L57.9741 35.1232C57.9741 35.1232 58.769 35.9006 60.3586 37.4552H66.4657L70 42.3319V56.5199L50.5011 62.0755H5.47904L0 58.7907V44.2767L4.86511 38.8456H6.55476C6.55476 35.5918 6.55476 32.6939 6.55476 30.1521C6.55476 26.3394 9.55676 24.3607 11.2944 24.3607C12.4528 24.3607 14.7266 24.3607 18.1157 24.3607V26.9811C15.1409 26.9811 13.1874 26.9811 12.2553 26.9811C10.8571 26.9811 9.06439 28.1731 9.06439 30.1521C9.06439 31.4715 9.06439 34.3693 9.06439 38.8456H10.2V45.989H9.06439V51.8738H10.2V56.8648ZM19.8113 55.4717H23.7736V48.8679H19.8113V55.4717ZM33.0189 55.4717H36.9811V48.8679H33.0189V55.4717ZM55.4717 44.9057V48.8679H62.0755V45.2013L55.4717 44.9057ZM55.4717 51.7579V55.4717L62.0755 54.5568V51.5094L55.4717 51.7579ZM64.717 46.2264V48.8679L68.6792 48.5216V46.2747L64.717 46.2264ZM63.3962 50.1887V52.8302L67.3585 52.4839V50.2369L63.3962 50.1887ZM19.987 46.1817L11.5228 46.2264V36.0769C11.5228 36.0769 11.2039 36.0769 10.566 36.0769C10.566 36.0769 10.566 35.7335 10.566 35.0466C10.566 35.0466 10.885 35.0466 11.5228 35.0466C11.7298 33.0173 12.5136 31.7299 13.8743 31.1847V30.3774C13.8743 30.3774 15.0636 30.3774 17.4421 30.3774C17.4421 30.3774 17.4421 30.6673 17.4421 31.2471C18.7947 31.2471 19.643 32.5136 19.987 35.0466H21.1321V36.1871H19.987V46.1817ZM33.1946 46.1817L24.7303 46.2264V36.0769C24.7303 36.0769 24.4114 36.0769 23.7736 36.0769C23.7736 36.0769 23.7736 35.7335 23.7736 35.0466C23.7736 35.0466 24.0925 35.0466 24.7303 35.0466C24.9373 33.0173 25.7212 31.7299 27.0818 31.1847V30.3774C27.0818 30.3774 28.2711 30.3774 30.6497 30.3774C30.6497 30.3774 30.6497 30.6673 30.6497 31.2471C32.0022 31.2471 32.8505 32.5136 33.1946 35.0466H34.3396V36.1871H33.1946V46.1817ZM45.0814 46.1817L36.6171 46.2264V36.0769C36.6171 36.0769 36.2982 36.0769 35.6604 36.0769C35.6604 36.0769 35.6604 35.7335 35.6604 35.0466C35.6604 35.0466 35.9793 35.0466 36.6171 35.0466C36.8241 33.0173 37.6079 31.7299 38.9686 31.1847V30.3774C38.9686 30.3774 40.1579 30.3774 42.5365 30.3774C42.5365 30.3774 42.5365 30.6673 42.5365 31.2471C43.889 31.2471 44.7373 32.5136 45.0814 35.0466H46.2264V36.1871H45.0814V46.1817ZM22.6107 32.9836C22.5386 33.063 22.0672 32.9836 22.0672 32.9836C21.7087 31.9654 21.2111 31.1178 20.5743 30.4407C20.5743 23.9211 20.5743 20.6612 20.5743 20.6612C20.0656 20.6612 19.8113 20.6612 19.8113 20.6612C19.8113 19.4043 19.8113 18.7759 19.8113 18.7759C20.3808 18.7759 20.6656 18.7759 20.6656 18.7759C20.6656 9.20247 20.6656 4.41576 20.6656 4.41576C20.2089 4.41576 19.9805 4.41576 19.9805 4.41576C19.9805 3.40053 19.9805 2.89291 19.9805 2.89291C20.5216 2.89291 20.7921 2.89291 20.7921 2.89291C20.7921 0.964305 20.7921 0 20.7921 0C24.7901 0 26.7891 0 26.7891 0C26.7891 1.62852 26.7891 2.44278 26.7891 2.44278C27.4089 2.44278 27.7188 2.44278 27.7188 2.44278C27.7188 3.6736 27.7188 4.28901 27.7188 4.28901H26.8954V18.7759H27.7358V20.6612H26.8954V28.4634H24.6038V30.1867C23.5383 30.9721 22.874 31.9044 22.6107 32.9836ZM34.8483 22.4528C34.8483 20.8564 34.8483 20.0582 34.8483 20.0582C34.5092 20.0582 34.3396 20.0582 34.3396 20.0582C34.3396 19.1594 34.3396 18.71 34.3396 18.71C34.7193 18.71 34.9091 18.71 34.9091 18.71C34.9091 11.8639 34.9091 8.4408 34.9091 8.4408C34.6046 8.4408 34.4524 8.4408 34.4524 8.4408C34.4524 7.7148 34.4524 7.35179 34.4524 7.35179C34.8131 7.35179 34.9935 7.35179 34.9935 7.35179C34.9935 5.97261 34.9935 5.28302 34.9935 5.28302C37.6588 5.28302 38.9915 5.28302 38.9915 5.28302C38.9915 6.4476 38.9915 7.02989 38.9915 7.02989C39.4047 7.02989 39.6113 7.02989 39.6113 7.02989C39.6113 7.91007 39.6113 8.35016 39.6113 8.35016H39.0623V18.71H39.6226V20.0582H39.0623V22.4528H34.8483Z" fill="#07AD68"/>
</svg>
