<?xml version="1.0" encoding="UTF-8"?>
<svg xmlns="http://www.w3.org/2000/svg" xmlns:xlink="http://www.w3.org/1999/xlink" width="43pt" height="33pt" viewBox="0 0 43 33" version="1.1">
<g id="surface1">
<path style=" stroke:none;fill-rule:evenodd;fill:rgb(2.745098%,67.843137%,40.784314%);fill-opacity:1;" d="M 35.242188 0.792969 L 6.9375 0.792969 L 0.324219 26.050781 L 0.332031 26.050781 L 0.324219 26.078125 L 0.324219 27.789062 L 19.359375 27.789062 L 19.359375 31.140625 L 14.359375 31.140625 L 14.359375 32.316406 L 27.050781 32.316406 L 27.050781 31.140625 L 22.007812 31.140625 L 22.007812 27.789062 L 41.855469 27.789062 L 41.855469 26.078125 L 41.847656 26.050781 L 41.855469 26.050781 Z M 35.242188 0.792969 "/>
<path style=" stroke:none;fill-rule:evenodd;fill:rgb(100%,100%,100%);fill-opacity:1;" d="M 13.402344 2.105469 L 8.535156 2.105469 L 7.601562 2.796875 L 6.546875 6.980469 L 7.21875 7.671875 L 12.609375 7.671875 L 13.542969 6.980469 L 14.078125 2.796875 Z M 20.292969 2.105469 L 15.425781 2.105469 L 14.578125 2.796875 L 14.058594 6.980469 L 14.816406 7.671875 L 20.207031 7.671875 L 21.054688 6.980469 L 21.058594 2.796875 Z M 22.207031 2.105469 L 27.074219 2.105469 L 27.925781 2.796875 L 28.445312 6.980469 L 27.683594 7.671875 L 22.292969 7.671875 L 21.449219 6.980469 L 21.445312 2.796875 Z M 33.964844 2.105469 L 29.097656 2.105469 L 28.421875 2.796875 L 28.957031 6.980469 L 29.890625 7.671875 L 35.28125 7.671875 L 35.953125 6.980469 L 34.902344 2.796875 Z M 7.191406 8.105469 L 12.59375 8.105469 L 13.351562 8.792969 L 12.816406 12.980469 L 11.796875 13.667969 L 5.875 13.667969 L 5.117188 12.980469 L 6.167969 8.792969 Z M 20.207031 8.105469 L 14.804688 8.105469 L 13.871094 8.792969 L 13.351562 12.980469 L 14.195312 13.667969 L 20.121094 13.667969 L 21.050781 12.980469 L 21.050781 8.792969 Z M 22.296875 8.105469 L 27.699219 8.105469 L 28.628906 8.792969 L 29.152344 12.980469 L 28.308594 13.667969 L 22.382812 13.667969 L 21.453125 12.980469 L 21.449219 8.792969 Z M 35.3125 8.105469 L 29.910156 8.105469 L 29.148438 8.792969 L 29.6875 12.980469 L 30.703125 13.667969 L 36.628906 13.667969 L 37.386719 12.980469 L 36.332031 8.792969 Z M 5.84375 14.101562 L 11.78125 14.101562 L 12.625 14.789062 L 12.085938 18.976562 L 10.984375 19.664062 L 4.527344 19.664062 L 3.6875 18.976562 L 4.738281 14.789062 Z M 20.117188 14.101562 L 14.179688 14.101562 L 13.164062 14.789062 L 12.644531 18.976562 L 13.570312 19.664062 L 20.03125 19.664062 L 21.042969 18.976562 L 21.046875 14.789062 Z M 22.382812 14.101562 L 28.320312 14.101562 L 29.335938 14.789062 L 29.859375 18.976562 L 28.929688 19.664062 L 22.472656 19.664062 L 21.457031 18.976562 L 21.453125 14.789062 Z M 36.65625 14.101562 L 30.722656 14.101562 L 29.878906 14.789062 L 30.414062 18.976562 L 31.515625 19.664062 L 37.976562 19.664062 L 38.816406 18.976562 L 37.761719 14.789062 Z M 4.496094 20.097656 L 10.96875 20.097656 L 11.894531 20.789062 L 11.359375 24.976562 L 10.175781 25.664062 L 3.179688 25.664062 L 2.257812 24.976562 L 3.308594 20.789062 Z M 20.027344 20.097656 L 13.558594 20.097656 L 12.457031 20.789062 L 11.9375 24.976562 L 12.949219 25.664062 L 19.941406 25.664062 L 21.039062 24.976562 L 21.042969 20.789062 Z M 22.472656 20.097656 L 28.945312 20.097656 L 30.042969 20.789062 L 30.566406 24.976562 L 29.554688 25.664062 L 22.558594 25.664062 L 21.460938 24.976562 L 21.457031 20.789062 Z M 38.003906 20.097656 L 31.535156 20.097656 L 30.605469 20.789062 L 31.140625 24.976562 L 32.328125 25.664062 L 39.320312 25.664062 L 40.246094 24.976562 L 39.191406 20.789062 Z M 38.003906 20.097656 "/>
</g>
</svg>
