<svg width="50" height="30" viewBox="0 0 50 30" fill="none" xmlns="http://www.w3.org/2000/svg">
<path fill-rule="evenodd" clip-rule="evenodd" d="M37.0951 20.9644C37.0825 20.8653 41.8562 2.8909 41.8562 2.8909H37.2386V3.95019H39.3971L35.3819 20.9644C35.3819 20.9644 34.2236 21.1517 32.2608 23.4914L36.2971 6.84167H14.8093L11.4494 20.9644C11.4494 20.9644 9.58322 20.9025 8.6285 21.6635L12.9336 3.95019H15.3125V2.89329H11.4657L6.57741 22.7978C6.57741 22.7978 5.39366 24.4437 4.4043 22.8499L9.67673 0.629395H17.4587V3.95019H35.1851V0.629395H46.5721C46.5721 0.629395 46.5721 20.5967 46.5721 22.569C45.6934 22.5764 45.3338 23.9161 44.5367 23.9161C43.7395 23.9161 43.0844 20.9644 37.0951 20.9644Z" fill="#07AD68"/>
<path fill-rule="evenodd" clip-rule="evenodd" d="M49.0904 26.2173C49.0904 25.182 47.9846 24.4818 46.5618 25.1892C45.1391 25.8966 44.9521 26.6631 42.5883 25.3964C40.2244 24.1297 39.225 22.5133 35.9157 23.78C32.6065 25.0468 33.4148 26.1754 31.3126 26.1754C29.2104 26.1754 30.2971 25.3964 28.1465 24.4326C28.1465 24.4326 30.5063 12.743 32.3275 12.8517V10.0701H29.5489C29.5489 10.0701 25.8532 14.7961 24.7436 23.5935C24.7436 23.5935 23.2513 23.3066 22.7154 23.9554C22.7154 23.9554 23.475 15.4943 26.6751 12.6506V10.0701H23.7606C23.7606 10.0701 19.7186 16.1446 18.9072 26.2173C18.9072 26.2173 17.8367 26.5421 16.6804 25.6275C16.6804 25.6275 18.3912 14.1794 20.8867 12.7648C20.8867 12.7648 20.8867 10.475 20.8867 10.2725H17.9685C17.9685 10.2725 14.3439 15.0768 13.4457 23.5913C13.4457 23.5913 10.3384 22.8346 7.97043 24.802C5.60244 26.7695 4.78218 26.5907 3.29633 25.1892C1.81048 23.7877 -0.105753 25.5078 0.916889 26.9319C1.93953 28.356 3.45871 28.9898 6.40203 28.7046C9.34535 28.4195 9.73113 26.1335 12.0519 26.1754C14.3728 26.2173 13.7507 28.6056 17.9685 28.7046C22.1862 28.8036 22.5106 26.7233 23.7606 26.1754C25.0106 25.6275 26.3354 26.1624 27.6225 27.4335C28.9095 28.7046 32.8492 29.8128 34.6897 27.9941C36.5302 26.1754 38.6516 25.3541 40.1598 26.9319C41.668 28.5097 42.7223 29.0582 45.1595 28.7046C47.5967 28.3511 49.0904 27.2526 49.0904 26.2173Z" fill="#07AD68"/>
</svg>
