<svg width="42" height="38" viewBox="0 0 42 38" fill="none" xmlns="http://www.w3.org/2000/svg">
<path fill-rule="evenodd" clip-rule="evenodd" d="M6.11999 34.1189H7.23389V29.8796H6.56718V28.875H27.6031V29.7821C27.6031 29.7821 27.429 29.7821 27.0808 29.7821C27.0808 29.7821 27.0808 31.2401 27.0808 34.156C27.0808 34.156 27.4608 34.156 28.2206 34.156C28.2206 34.156 28.2206 33.1339 28.2206 31.0896C28.2206 31.0896 28.435 31.0896 28.8636 31.0896C28.8636 31.0896 28.8636 29.9522 28.8636 27.6774C28.8636 27.6774 28.6493 27.6774 28.2206 27.6774C28.2206 27.6774 28.2206 26.2621 28.2206 23.4314C28.2206 23.4314 28.435 23.4314 28.8636 23.4314C28.8636 23.4314 28.8636 21.6381 28.8636 18.0516C28.8636 17.3361 28.132 16.1591 27.1287 16.1591C26.4598 16.1591 25.2469 16.1591 23.4899 16.1591C23.4899 16.1591 23.4899 16.6624 23.4899 17.6689C23.4899 17.6689 23.0322 17.6689 22.1167 17.6689C22.1167 17.6689 22.1167 17.9729 22.1167 18.5811C21.7409 18.6866 21.3824 19.0809 21.0413 19.7637C21.0413 19.7637 21.0413 19.9662 21.0413 20.3713C21.0413 20.3713 20.9138 20.3713 20.6587 20.3713C20.6587 20.3713 20.5626 20.1471 20.3704 19.6987C20.3704 19.6987 20.3704 19.3882 20.3704 18.767C20.3704 18.767 20.2215 18.767 19.9237 18.767C19.9237 18.767 19.9237 18.5285 19.9237 18.0516C19.9237 18.0516 20.0782 18.0516 20.3872 18.0516C20.3872 18.0516 20.3872 17.4306 20.3872 16.1887C20.3872 16.1887 19.5644 16.1887 17.9188 16.1887C17.9188 16.1887 17.9188 15.6384 17.9188 14.5378C17.9188 14.5378 20.8383 14.5378 26.6773 14.5378C29.0942 14.5378 30.5245 16.1902 30.5245 18.0913C30.5245 19.3586 30.5245 20.3529 30.5245 21.0739H31.9832L32.3493 7.92453H34.5966L34.7845 21.0739C34.7845 21.0739 35.2614 21.5403 36.2152 22.4731H39.8794L42 25.3992V33.9119L30.3007 37.2453H3.28742L0 35.2744V26.566L2.91906 23.3074H3.93286C3.93286 21.3551 3.93286 19.6164 3.93286 18.0913C3.93286 15.8037 5.73406 14.6164 6.77662 14.6164C7.47167 14.6164 8.83594 14.6164 10.8694 14.6164V16.1887C9.08454 16.1887 7.91245 16.1887 7.35318 16.1887C6.51426 16.1887 5.43864 16.9039 5.43864 18.0913C5.43864 18.8829 5.43864 20.6216 5.43864 23.3074H6.11999V27.5934H5.43864V31.1243H6.11999V34.1189ZM11.8868 33.283H14.2642V29.3208H11.8868V33.283ZM19.8113 33.283H22.1887V29.3208H19.8113V33.283ZM33.283 26.9434V29.3208H37.2453V27.1208L33.283 26.9434ZM33.283 31.0547V33.283L37.2453 32.7341V30.9057L33.283 31.0547ZM38.8302 27.7358V29.3208L41.2075 29.113V27.7648L38.8302 27.7358ZM38.0377 30.1132V31.6981L40.4151 31.4903V30.1422L38.0377 30.1132ZM11.9922 27.709L6.91368 27.7358V21.6462C6.91368 21.6462 6.72233 21.6462 6.33962 21.6462C6.33962 21.6462 6.33962 21.4401 6.33962 21.028C6.33962 21.028 6.53097 21.028 6.91368 21.028C7.03787 19.8104 7.50816 19.038 8.32457 18.7108V18.2264C8.32457 18.2264 9.03814 18.2264 10.4653 18.2264C10.4653 18.2264 10.4653 18.4004 10.4653 18.7483C11.2768 18.7483 11.7858 19.5082 11.9922 21.028H12.6792V21.7123H11.9922V27.709ZM19.9167 27.709L14.8382 27.7358V21.6462C14.8382 21.6462 14.6469 21.6462 14.2642 21.6462C14.2642 21.6462 14.2642 21.4401 14.2642 21.028C14.2642 21.028 14.4555 21.028 14.8382 21.028C14.9624 19.8104 15.4327 19.038 16.2491 18.7108V18.2264C16.2491 18.2264 16.9627 18.2264 18.3898 18.2264C18.3898 18.2264 18.3898 18.4004 18.3898 18.7483C19.2013 18.7483 19.7103 19.5082 19.9167 21.028H20.6038V21.7123H19.9167V27.709ZM27.0488 27.709L21.9703 27.7358V21.6462C21.9703 21.6462 21.7789 21.6462 21.3962 21.6462C21.3962 21.6462 21.3962 21.4401 21.3962 21.028C21.3962 21.028 21.5876 21.028 21.9703 21.028C22.0945 19.8104 22.5648 19.038 23.3812 18.7108V18.2264C23.3812 18.2264 24.0947 18.2264 25.5219 18.2264C25.5219 18.2264 25.5219 18.4004 25.5219 18.7483C26.3334 18.7483 26.8424 19.5082 27.0488 21.028H27.7358V21.7123H27.0488V27.709ZM13.5664 19.7901C13.5232 19.8378 13.2403 19.7901 13.2403 19.7901C13.0252 19.1792 12.7266 18.6707 12.3446 18.2644C12.3446 14.3526 12.3446 12.3967 12.3446 12.3967C12.0394 12.3967 11.8868 12.3967 11.8868 12.3967C11.8868 11.6426 11.8868 11.2655 11.8868 11.2655C12.2285 11.2655 12.3993 11.2655 12.3993 11.2655C12.3993 5.52148 12.3993 2.64946 12.3993 2.64946C12.1253 2.64946 11.9883 2.64946 11.9883 2.64946C11.9883 2.04032 11.9883 1.73575 11.9883 1.73575C12.313 1.73575 12.4753 1.73575 12.4753 1.73575C12.4753 0.578583 12.4753 0 12.4753 0C14.8741 0 16.0734 0 16.0734 0C16.0734 0.977112 16.0734 1.46567 16.0734 1.46567C16.4453 1.46567 16.6313 1.46567 16.6313 1.46567C16.6313 2.20416 16.6313 2.57341 16.6313 2.57341H16.1372V11.2655H16.6415V12.3967H16.1372V17.078H14.7623V18.112C14.123 18.5833 13.7244 19.1426 13.5664 19.7901ZM20.909 13.4717C20.909 12.5139 20.909 12.0349 20.909 12.0349C20.7055 12.0349 20.6038 12.0349 20.6038 12.0349C20.6038 11.4956 20.6038 11.226 20.6038 11.226C20.8316 11.226 20.9455 11.226 20.9455 11.226C20.9455 7.11831 20.9455 5.06448 20.9455 5.06448C20.7628 5.06448 20.6714 5.06448 20.6714 5.06448C20.6714 4.62888 20.6714 4.41107 20.6714 4.41107C20.8879 4.41107 20.9961 4.41107 20.9961 4.41107C20.9961 3.58357 20.9961 3.16981 20.9961 3.16981C22.5953 3.16981 23.3949 3.16981 23.3949 3.16981C23.3949 3.86856 23.3949 4.21793 23.3949 4.21793C23.6428 4.21793 23.7668 4.21793 23.7668 4.21793C23.7668 4.74604 23.7668 5.0101 23.7668 5.0101H23.4374V11.226H23.7736V12.0349H23.4374V13.4717H20.909Z" fill="#07AD68"/>
</svg>
