<svg width="55" height="54" viewBox="0 0 55 54" fill="none" xmlns="http://www.w3.org/2000/svg">
<path fill-rule="evenodd" clip-rule="evenodd" d="M15.7322 53.8976H14.2832L14.5566 34.7109C14.3964 34.6468 14.2832 34.4899 14.2832 34.3065V33.1456C14.2832 32.9051 14.4778 32.7102 14.7179 32.7102H15.2975C15.5375 32.7102 15.7322 32.9051 15.7322 33.1456V34.3065C15.7322 34.4899 15.619 34.6468 15.4587 34.7109L15.7322 53.8976ZM15.0077 33.8712C15.2478 33.8712 15.4424 33.6762 15.4424 33.4358C15.4424 33.1954 15.2478 33.0004 15.0077 33.0004C14.7676 33.0004 14.573 33.1954 14.573 33.4358C14.573 33.6762 14.7676 33.8712 15.0077 33.8712Z" fill="#07AD68"/>
<path fill-rule="evenodd" clip-rule="evenodd" d="M14.8893 33.344L14.7806 32.2809L13.9802 31.1729C13.9802 31.1729 14.5097 21.1397 14.9201 20.5064L15.0979 33.3219L16.0477 33.7699L17.3734 33.6269C17.3734 33.6269 25.5882 39.2409 25.9229 39.9301L15.0333 33.5294L14.2059 34.1334L13.6806 35.3844C13.6806 35.3844 4.93639 39.8037 4.19124 39.7477L14.9081 33.3527L14.8893 33.344Z" fill="#07AD68"/>
<path fill-rule="evenodd" clip-rule="evenodd" d="M38.7465 51.8288H37.0469L37.3676 29.0866C37.1797 29.0105 37.0469 28.8246 37.0469 28.6072V27.2311C37.0469 26.9461 37.2752 26.7151 37.5567 26.7151H38.2366C38.5182 26.7151 38.7465 26.9461 38.7465 27.2311V28.6072C38.7465 28.8246 38.6137 29.0105 38.4257 29.0866L38.7465 51.8288ZM37.8967 28.0912C38.1783 28.0912 38.4065 27.8601 38.4065 27.5751C38.4065 27.2901 38.1783 27.0591 37.8967 27.0591C37.6151 27.0591 37.3868 27.2901 37.3868 27.5751C37.3868 27.8601 37.6151 28.0912 37.8967 28.0912Z" fill="#07AD68"/>
<path fill-rule="evenodd" clip-rule="evenodd" d="M37.9254 27.2919L39.1435 27.6286L40.7067 27.1963C40.7067 27.1963 51.5385 32.147 52.0611 32.8891L37.8488 27.5348L37.875 27.6289L36.9736 28.5028L36.5739 30.0582C36.5739 30.0582 26.8441 36.8461 25.9338 36.9209L37.8003 27.3609L37.8126 27.4048L37.8575 27.3598L37.6515 27.3063L37.3348 26.0958L36.1713 24.9727C36.1713 24.9727 35.0694 13.2341 35.4571 12.4172L37.9117 27.3056L37.9254 27.2919Z" fill="#07AD68"/>
<path fill-rule="evenodd" clip-rule="evenodd" d="M27.0588 52.5461H24.9199L25.3235 22.0625C25.087 21.9606 24.9199 21.7113 24.9199 21.42V19.5755C24.9199 19.1935 25.2072 18.8838 25.5616 18.8838H26.4171C26.7715 18.8838 27.0588 19.1935 27.0588 19.5755V21.42C27.0588 21.7113 26.8917 21.9606 26.6551 22.0625L27.0588 52.5461ZM25.9893 20.7283C26.3437 20.7283 26.631 20.4186 26.631 20.0366C26.631 19.6546 26.3437 19.3449 25.9893 19.3449C25.635 19.3449 25.3477 19.6546 25.3477 20.0366C25.3477 20.4186 25.635 20.7283 25.9893 20.7283Z" fill="#07AD68"/>
<path fill-rule="evenodd" clip-rule="evenodd" d="M25.7223 19.6157L25.9918 17.9457L25.2213 15.9237C25.2213 15.9237 30.1449 0.800084 31.0324 0L26.0365 19.7224L27.2698 20.7555L29.3696 21.085C29.3696 21.085 39.7317 33.0017 39.9663 34.1868L25.8181 19.9843L24.4032 20.5286L23.0739 22.2211C23.0739 22.2211 7.78821 25.428 6.66602 25.043L25.7506 19.6394L25.7223 19.6157Z" fill="#07AD68"/>
</svg>
