<svg width="55" height="33" viewBox="0 0 55 33" fill="none" xmlns="http://www.w3.org/2000/svg">
<path fill-rule="evenodd" clip-rule="evenodd" d="M40.8056 23.0609C40.7917 22.9519 46.0427 3.18003 46.0427 3.18003H40.9634V4.34525H43.3378L38.9211 23.0609C38.9211 23.0609 37.6469 23.2669 35.4879 25.8406L39.9277 7.52588H16.2912L12.5954 23.0609C12.5954 23.0609 10.5425 22.9928 9.49233 23.8299L14.228 4.34525H16.8447V3.18267H12.6132L7.23613 25.0777C7.23613 25.0777 5.93401 26.8881 4.8457 25.1349L10.6454 0.692383H19.2056V4.34525H38.7046V0.692383H51.2303C51.2303 0.692383 51.2303 22.6564 51.2303 24.826C50.2638 24.8341 49.8682 26.3078 48.9913 26.3078C48.1145 26.3078 47.3938 23.0609 40.8056 23.0609Z" fill="#07AD68"/>
<path fill-rule="evenodd" clip-rule="evenodd" d="M53.9991 28.8388C53.9991 27.7 52.7826 26.9298 51.2176 27.7079C49.6526 28.4861 49.447 29.3293 46.8467 27.9359C44.2465 26.5424 43.1472 24.7644 39.5069 26.1579C35.8667 27.5513 36.7559 28.7928 34.4434 28.7928C32.131 28.7928 33.3264 27.9359 30.9608 26.8757C30.9608 26.8757 33.5566 14.0171 35.5599 14.1367V11.0769H32.5034C32.5034 11.0769 28.4382 16.2755 27.2176 25.9527C27.2176 25.9527 25.576 25.6371 24.9866 26.3508C24.9866 26.3508 25.8221 17.0435 29.3422 13.9155V11.0769H26.1363C26.1363 11.0769 21.6901 17.7589 20.7975 28.8388C20.7975 28.8388 19.62 29.1962 18.3481 28.19C18.3481 28.19 20.2299 15.5972 22.975 14.0412C22.975 14.0412 22.975 11.5223 22.975 11.2996H19.7649C19.7649 11.2996 15.7779 16.5843 14.7898 25.9502C14.7898 25.9502 11.3719 25.1179 8.76709 27.2821C6.1623 29.4463 5.26 29.2496 3.62557 27.7079C1.99114 26.1663 -0.116719 28.0584 1.00819 29.6249C2.13309 31.1915 3.80419 31.8886 7.04184 31.5749C10.2795 31.2612 10.7038 28.7467 13.2567 28.7928C15.8096 28.8388 15.1254 31.466 19.7649 31.5749C24.4044 31.6838 24.7613 29.3955 26.1363 28.7928C27.5113 28.19 28.9686 28.7785 30.3843 30.1767C31.8001 31.5749 36.1337 32.7939 38.1583 30.7933C40.1829 28.7928 42.5163 27.8893 44.1754 29.6249C45.8345 31.3605 46.9941 31.9638 49.6751 31.5749C52.356 31.186 53.9991 29.9777 53.9991 28.8388Z" fill="#07AD68"/>
</svg>
