<?xml version="1.0" encoding="UTF-8"?>
<svg width="257px" height="46px" viewBox="0 0 257 46" version="1.1" xmlns="http://www.w3.org/2000/svg" xmlns:xlink="http://www.w3.org/1999/xlink">
    <!-- Generator: Sketch 61 (89581) - https://sketch.com -->
    <title>Group</title>
    <desc>Created with Sketch.</desc>
    <defs>
        <path d="M10.8822591,0.0262795004 C9.86174033,0.0308444841 8.79676356,0.169521285 7.83052636,0.479693417 L7.83052636,0.479693417 C2.91243944,2.05806736 0.0139797093,6.04551888 0.00365235648,11.1238781 L0.00365235648,11.1238781 C-0.00314858317,14.4795112 0.0013853766,17.8351443 0.00302263985,21.1907775 L0.00302263985,21.1907775 C0.00365235648,21.408046 0.0232995155,21.6251912 0.033123095,21.8316025 L0.033123095,21.8316025 L5.61316814,21.8316025 L5.61316814,16.4441815 L39.2402883,16.4441815 L39.2402883,21.8378947 L44.7835579,21.8378947 C44.7974117,21.6466589 44.8193258,21.4865144 44.8193258,21.3257529 L44.8193258,21.3257529 C44.821089,17.7630916 44.8699551,14.1991966 44.7906108,10.6382626 L44.7906108,10.6382626 C44.7650443,9.50047123 44.5639128,8.31024428 44.1606422,7.24647971 L44.1606422,7.24647971 C42.5622955,3.02831145 39.0247993,0.0172729111 33.9892073,0.00999361285 L33.9892073,0.00999361285 C30.4426432,0.00468836158 26.8975904,0 23.3510263,0 L23.3510263,0 C19.1951484,0 15.0380111,0.00653903063 10.8822591,0.0262795004 L10.8822591,0.0262795004 Z M10.5451088,5.49278573 C10.755938,5.47748686 10.9673968,5.47353877 11.1789816,5.47353877 L11.1789816,5.47353877 C18.6882265,5.47242837 26.1975974,5.46675298 33.7069683,5.47575957 L33.7069683,5.47575957 C36.2267164,5.47872064 38.2779554,6.97060665 39.009938,9.3289759 L39.009938,9.3289759 C39.1608181,9.81471484 39.1844954,10.3375905 39.2754265,10.897603 L39.2754265,10.897603 L5.67034641,10.897603 C5.48697293,8.35811492 7.92334659,5.67723574 10.5451088,5.49278573 L10.5451088,5.49278573 Z" id="path-1"></path>
        <path d="M0.0375311114,0 L0,0 L0.0333749817,11.2412105 C0.193197064,15.3949755 2.23599783,18.5535741 5.92853023,20.6290377 L5.92853023,20.6290377 C7.64085571,21.5916324 9.55683154,21.8334531 11.5034116,21.8345635 L11.5034116,21.8345635 C18.6387308,21.8391285 25.7732943,21.839622 32.9086135,21.8323427 L32.9086135,21.8323427 C33.6269942,21.831109 34.347642,21.7973034 35.063252,21.7319131 L35.063252,21.7319131 C40.1883897,21.2628302 44.5942651,16.871686 44.7770089,11.8535352 L44.7770089,11.8535352 L44.8358313,0.240216842 C44.8364541,0.164586167 44.7937593,0.0890788701 44.7758754,0.0276366577 L44.7758754,0.0276366577 L39.2179964,0.0276366577 L39.2424294,10.7523872 C39.3178694,13.3081611 37.2848922,16.3997654 33.460875,16.3844666 L33.460875,16.3844666 C26.0931904,16.355226 18.7251279,16.3625053 11.3568136,16.3822458 L11.3568136,16.3822458 C8.10571253,16.3906355 5.50523471,13.6307944 5.59679551,10.7432572 L5.59679551,10.7432572 C5.59679551,10.7432572 5.62173229,0.262795004 5.62173229,0 L5.62173229,0 L0.0375311114,0 Z" id="path-3"></path>
        <linearGradient x1="102.859206%" y1="62.4933079%" x2="12.5654337%" y2="65.8618583%" id="linearGradient-5">
            <stop stop-color="#D0E5FF" offset="0%"></stop>
            <stop stop-color="#0073FF" offset="52.6544693%"></stop>
            <stop stop-color="#040080" offset="100%"></stop>
        </linearGradient>
    </defs>
    <g id="Page-1" stroke="none" stroke-width="1" fill="none" fill-rule="evenodd">
        <g id="Главная-страница-Copy-2" transform="translate(-364.000000, -66.000000)">
            <g id="Group" transform="translate(364.000000, 66.000000)">
                <g id="Group-2" transform="translate(102.000000, 4.000000)">
                    <g id="Group-30" transform="translate(54.000000, 0.000000)">
                        <mask id="mask-2" fill="white">
                            <use xlink:href="#path-1"></use>
                        </mask>
                        <g id="Clip-29"></g>
                        <polygon id="Fill-28" fill="#000000" mask="url(#mask-2)" points="-0.629716635 22.4547844 45.465541 22.4547844 45.465541 -0.616889682 -0.629716635 -0.616889682"></polygon>
                    </g>
                    <g id="Group-33" transform="translate(110.000000, 0.000000)">
                        <mask id="mask-4" fill="white">
                            <use xlink:href="#path-3"></use>
                        </mask>
                        <g id="Clip-32"></g>
                        <polygon id="Fill-31" fill="#000000" mask="url(#mask-4)" points="-0.629716635 22.4547844 45.465541 22.4547844 45.465541 -0.616889682 -0.629716635 -0.616889682"></polygon>
                    </g>
                    <path d="M3.46116131,39.8064516 C3.9219745,39.8064516 4.38453318,39.7275986 4.84883737,39.5698925 C5.31314157,39.4121864 5.73206264,39.1738351 6.1056006,38.8548387 C6.47913856,38.5358423 6.78111083,38.1397849 7.01151742,37.6666667 C7.24192401,37.1935484 7.35712731,36.6379928 7.35712731,36 C7.35712731,35.3691756 7.24192401,34.8154122 7.01151742,34.3387097 C6.78111083,33.8620072 6.47913856,33.4641577 6.1056006,33.1451613 C5.73206264,32.8261649 5.31314157,32.5878136 4.84883737,32.4301075 C4.38453318,32.2724014 3.9219745,32.1935484 3.46116131,32.1935484 L3.46116131,32.1935484 L1,32.1935484 L1,39.8064516 L3.46116131,39.8064516 Z M3.25170078,39.1182796 L1.75405793,39.1182796 L1.75405793,32.8817204 L3.25170078,32.8817204 C3.81026221,32.8817204 4.29725796,32.9713262 4.71268803,33.1505376 C5.12811809,33.3297491 5.47198247,33.5645161 5.74428117,33.8548387 C6.01657987,34.1451613 6.22080389,34.4767025 6.35695324,34.8494624 C6.49310259,35.2222222 6.56117727,35.6057348 6.56117727,36 C6.56117727,36.3942652 6.49310259,36.7777778 6.35695324,37.1505376 C6.22080389,37.5232975 6.01657987,37.8548387 5.74428117,38.1451613 C5.47198247,38.4354839 5.12811809,38.6702509 4.71268803,38.8494624 C4.29725796,39.0286738 3.81026221,39.1182796 3.25170078,39.1182796 L3.25170078,39.1182796 Z M17.3131266,39.8064516 L17.3131266,32.1935484 L16.5590687,32.1935484 L16.5590687,39.8064516 L17.3131266,39.8064516 Z M28.7877148,40 C29.0809596,40 29.3724588,39.9569892 29.6622126,39.8709677 C29.9519663,39.7849462 30.210301,39.6523297 30.4372166,39.4731183 C30.6641321,39.2939068 30.8491556,39.0663082 30.992287,38.7903226 C31.1354184,38.5143369 31.206984,38.1863799 31.206984,37.8064516 C31.206984,37.4265233 31.1406549,37.1129032 31.0079965,36.8655914 C30.8753382,36.6182796 30.7042787,36.4139785 30.4948182,36.2526882 C30.2853577,36.0913978 30.0497146,35.9605735 29.7878889,35.8602151 C29.5260632,35.7598566 29.2659831,35.6666667 29.0076484,35.5806452 C28.7981879,35.5089606 28.5974548,35.437276 28.4054494,35.3655914 C28.2134439,35.2939068 28.0423844,35.202509 27.892271,35.0913978 C27.7421576,34.9802867 27.6217178,34.8458781 27.5309516,34.688172 C27.4401854,34.5304659 27.3948023,34.3297491 27.3948023,34.0860215 C27.3948023,33.8422939 27.4419309,33.6308244 27.5361881,33.4516129 C27.6304454,33.2724014 27.7543762,33.1236559 27.9079806,33.0053763 C28.061585,32.8870968 28.2326444,32.7992832 28.4211589,32.7419355 C28.6096734,32.6845878 28.7946968,32.655914 28.9762293,32.655914 C29.3323122,32.655914 29.63603,32.7258065 29.8873827,32.8655914 C30.1387353,33.0053763 30.3447048,33.1899642 30.5052912,33.4193548 L30.5052912,33.4193548 L31.1022538,32.9247312 C30.9207213,32.6738351 30.6519136,32.4569892 30.2958307,32.2741935 C29.9397478,32.0913978 29.5103537,32 29.0076484,32 C28.7353497,32 28.45956,32.0394265 28.1802793,32.1182796 C27.9009986,32.1971326 27.6461549,32.3225806 27.4157483,32.4946237 C27.1853417,32.6666667 26.9985727,32.8853047 26.8554414,33.1505376 C26.71231,33.4157706 26.6407443,33.7311828 26.6407443,34.0967742 C26.6407443,34.4408602 26.698346,34.7311828 26.8135493,34.9677419 C26.9287526,35.2043011 27.0806115,35.4032258 27.2691259,35.5645161 C27.4576404,35.7258065 27.670592,35.8566308 27.9079806,35.9569892 C28.1453692,36.0573477 28.3862488,36.1469534 28.6306194,36.2258065 C28.868008,36.3046595 29.0949236,36.3835125 29.3113662,36.4623656 C29.5278087,36.5412186 29.7198142,36.6397849 29.8873827,36.7580645 C30.0549511,36.8763441 30.1893549,37.0232975 30.2905942,37.1989247 C30.3918334,37.374552 30.4424531,37.5949821 30.4424531,37.8602151 C30.4424531,38.1039427 30.3918334,38.3172043 30.2905942,38.5 C30.1893549,38.6827957 30.0601876,38.8369176 29.9030922,38.9623656 C29.7459968,39.0878136 29.5697008,39.1810036 29.3742043,39.2419355 C29.1787078,39.3028674 28.9867023,39.3333333 28.7981879,39.3333333 C28.4071949,39.3333333 28.0668215,39.2419355 27.7770677,39.0591398 C27.487314,38.8763441 27.2621439,38.6487455 27.1015575,38.3763441 L27.1015575,38.3763441 L26.4522298,38.8709677 C26.5848882,39.0573477 26.7384926,39.2222222 26.913043,39.3655914 C27.0875935,39.5089606 27.276108,39.6272401 27.4785865,39.7204301 C27.681065,39.8136201 27.8940165,39.8835125 28.1174411,39.9301075 C28.3408657,39.9767025 28.5642903,40 28.7877148,40 Z M42.6396801,39.8064516 L42.6396801,32.8817204 L45.1217875,32.8817204 L45.1217875,32.1935484 L39.4035148,32.1935484 L39.4035148,32.8817204 L41.8856222,32.8817204 L41.8856222,39.8064516 L42.6396801,39.8064516 Z M54.6169736,39.8064516 L54.6169736,36.2473118 L55.8737369,36.2473118 L57.9264501,39.8064516 L58.8480765,39.8064516 L56.6801599,36.1827957 C56.9524586,36.1541219 57.2038113,36.0896057 57.4342179,35.9892473 C57.6646245,35.8888889 57.863612,35.7544803 58.0311804,35.5860215 C58.1987488,35.4175627 58.3314072,35.218638 58.4291554,34.9892473 C58.5269037,34.7598566 58.5757778,34.5053763 58.5757778,34.2258065 C58.5757778,33.8530466 58.5129396,33.5376344 58.3872633,33.2795699 C58.261587,33.0215054 58.085291,32.811828 57.8583755,32.6505376 C57.6314599,32.4892473 57.3626522,32.3727599 57.0519524,32.3010753 C56.7412526,32.2293907 56.4043702,32.1935484 56.0413053,32.1935484 L56.0413053,32.1935484 L53.8629157,32.1935484 L53.8629157,39.8064516 L54.6169736,39.8064516 Z M55.926102,35.5806452 L54.6169736,35.5806452 L54.6169736,32.8602151 L55.9575211,32.8602151 C56.2368018,32.8602151 56.4916454,32.8853047 56.722052,32.9354839 C56.9524586,32.9856631 57.1479551,33.0645161 57.3085415,33.172043 C57.469128,33.2795699 57.5948043,33.4193548 57.6855705,33.5913978 C57.7763367,33.7634409 57.8217199,33.9749104 57.8217199,34.2258065 C57.8217199,34.6774194 57.6576424,35.016129 57.3294876,35.2419355 C57.0013328,35.4677419 56.5335376,35.5806452 55.926102,35.5806452 L55.926102,35.5806452 Z M68.5213041,39.8064516 L68.5213041,32.1935484 L67.7672461,32.1935484 L67.7672461,39.8064516 L68.5213041,39.8064516 Z M80.3205561,39.8064516 C80.7464592,39.8064516 81.1304702,39.7562724 81.4725891,39.655914 C81.814708,39.5555556 82.1044617,39.4139785 82.3418503,39.2311828 C82.5792389,39.0483871 82.7625169,38.8261649 82.8916842,38.5645161 C83.0208515,38.3028674 83.0854352,38.0143369 83.0854352,37.6989247 C83.0854352,37.1397849 82.9265943,36.6971326 82.6089125,36.3709677 C82.2912307,36.0448029 81.8915102,35.8530466 81.4097509,35.7956989 L81.4097509,35.7956989 L81.4097509,35.7741935 C81.8077259,35.6810036 82.1254078,35.4856631 82.3627964,35.188172 C82.600185,34.890681 82.7188793,34.5412186 82.7188793,34.1397849 C82.7188793,33.7598566 82.6473136,33.4444444 82.5041822,33.1935484 C82.3610509,32.9426523 82.1760274,32.7437276 81.9491118,32.5967742 C81.7221962,32.4498208 81.4656071,32.3458781 81.1793443,32.2849462 C80.8930816,32.2240143 80.6103099,32.1935484 80.3310291,32.1935484 L80.3310291,32.1935484 L78.1212205,32.1935484 L78.1212205,39.8064516 L80.3205561,39.8064516 Z M80.3938673,35.5268817 L78.8752784,35.5268817 L78.8752784,32.8602151 L80.1844068,32.8602151 C80.4287774,32.8602151 80.659184,32.8835125 80.8756265,32.9301075 C81.0920691,32.9767025 81.2805836,33.0537634 81.44117,33.1612903 C81.6017564,33.2688172 81.7291782,33.40681 81.8234355,33.5752688 C81.9176927,33.7437276 81.9648213,33.9498208 81.9648213,34.1935484 C81.9648213,34.4444444 81.9176927,34.655914 81.8234355,34.827957 C81.7291782,35 81.6052474,35.1379928 81.451643,35.2419355 C81.2980386,35.3458781 81.1287247,35.4193548 80.9437012,35.4623656 C80.7586777,35.5053763 80.5753998,35.5268817 80.3938673,35.5268817 L80.3938673,35.5268817 Z M80.278664,39.1397849 L78.8752784,39.1397849 L78.8752784,36.1612903 L80.4148134,36.1612903 C81.0222489,36.1612903 81.4917896,36.2849462 81.8234355,36.5322581 C82.1550813,36.7795699 82.3209043,37.1541219 82.3209043,37.655914 C82.3209043,37.921147 82.2650481,38.1487455 82.1533358,38.3387097 C82.0416235,38.5286738 81.8932557,38.6827957 81.7082322,38.8010753 C81.5232087,38.9193548 81.3067662,39.0053763 81.0589045,39.0591398 C80.8110429,39.1129032 80.5509627,39.1397849 80.278664,39.1397849 L80.278664,39.1397849 Z M95.1465129,40 C95.6980923,40 96.153669,39.9014337 96.5132429,39.7043011 C96.8728169,39.5071685 97.1573341,39.2580645 97.3667946,38.9569892 C97.5762552,38.655914 97.721132,38.327957 97.8014252,37.9731183 C97.8817184,37.6182796 97.921865,37.2831541 97.921865,36.9677419 L97.921865,36.9677419 L97.921865,32.1935484 L97.1678071,32.1935484 L97.1678071,36.8817204 C97.1678071,37.1899642 97.132897,37.4892473 97.0630768,37.7795699 C96.9932567,38.0698925 96.8797989,38.327957 96.7227035,38.5537634 C96.5656081,38.7795699 96.357893,38.9623656 96.0995584,39.1021505 C95.8412237,39.2419355 95.5235419,39.311828 95.1465129,39.311828 C94.769484,39.311828 94.4518021,39.2419355 94.1934675,39.1021505 C93.9351328,38.9623656 93.7274178,38.7795699 93.5703224,38.5537634 C93.413227,38.327957 93.2997692,38.0698925 93.229949,37.7795699 C93.1601288,37.4892473 93.1252187,37.1899642 93.1252187,36.8817204 L93.1252187,36.8817204 L93.1252187,32.1935484 L92.3711608,32.1935484 L92.3711608,36.9677419 C92.3711608,37.2831541 92.4113074,37.6182796 92.4916006,37.9731183 C92.5718938,38.327957 92.7167707,38.655914 92.9262312,38.9569892 C93.1356918,39.2580645 93.4184635,39.5071685 93.7745464,39.7043011 C94.1306293,39.9014337 94.5879515,40 95.1465129,40 Z M109.857266,39.8064516 L109.857266,32.8817204 L112.339374,32.8817204 L112.339374,32.1935484 L106.621101,32.1935484 L106.621101,32.8817204 L109.103209,32.8817204 L109.103209,39.8064516 L109.857266,39.8064516 Z M121.83456,39.8064516 L121.83456,32.1935484 L121.080502,32.1935484 L121.080502,39.8064516 L121.83456,39.8064516 Z M134.901048,40 C135.452628,40 135.96406,39.8996416 136.435347,39.6989247 C136.906633,39.4982079 137.315081,39.2204301 137.660691,38.8655914 C138.006301,38.5107527 138.276854,38.0896057 138.47235,37.6021505 C138.667847,37.1146953 138.765595,36.5806452 138.765595,36 C138.765595,35.4193548 138.667847,34.8853047 138.47235,34.3978495 C138.276854,33.9103943 138.006301,33.4892473 137.660691,33.1344086 C137.315081,32.7795699 136.906633,32.5017921 136.435347,32.3010753 C135.96406,32.1003584 135.452628,32 134.901048,32 C134.349469,32 133.838036,32.1003584 133.36675,32.3010753 C132.895464,32.5017921 132.487016,32.7795699 132.141406,33.1344086 C131.795796,33.4892473 131.525243,33.9103943 131.329746,34.3978495 C131.13425,34.8853047 131.036501,35.4193548 131.036501,36 C131.036501,36.5806452 131.13425,37.1146953 131.329746,37.6021505 C131.525243,38.0896057 131.795796,38.5107527 132.141406,38.8655914 C132.487016,39.2204301 132.895464,39.4982079 133.36675,39.6989247 C133.838036,39.8996416 134.349469,40 134.901048,40 Z M134.901048,39.311828 C134.426271,39.311828 133.998622,39.2222222 133.618102,39.0430108 C133.237582,38.8637993 132.914664,38.6236559 132.649347,38.3225806 C132.384031,38.0215054 132.181552,37.6702509 132.041912,37.2688172 C131.902272,36.8673835 131.832451,36.4444444 131.832451,36 C131.832451,35.5555556 131.902272,35.1326165 132.041912,34.7311828 C132.181552,34.3297491 132.384031,33.9767025 132.649347,33.672043 C132.914664,33.3673835 133.237582,33.125448 133.618102,32.9462366 C133.998622,32.7670251 134.426271,32.6774194 134.901048,32.6774194 C135.375825,32.6774194 135.803474,32.7670251 136.183994,32.9462366 C136.564514,33.125448 136.887432,33.3673835 137.152749,33.672043 C137.418066,33.9767025 137.620544,34.3297491 137.760185,34.7311828 C137.899825,35.1326165 137.969645,35.5555556 137.969645,36 C137.969645,36.4444444 137.899825,36.8673835 137.760185,37.2688172 C137.620544,37.6702509 137.418066,38.0215054 137.152749,38.3225806 C136.887432,38.6236559 136.564514,38.8637993 136.183994,39.0430108 C135.803474,39.2222222 135.375825,39.311828 134.901048,39.311828 Z M148.721594,39.8064516 L148.721594,33.2580645 L148.742541,33.2580645 L153.057428,39.8064516 L154,39.8064516 L154,32.1935484 L153.245942,32.1935484 L153.245942,38.6774194 L153.224996,38.6774194 L148.910109,32.1935484 L147.967537,32.1935484 L147.967537,39.8064516 L148.721594,39.8064516 Z" id="DISTRIBUTION" fill="#000000" fill-rule="nonzero"></path>
                    <polygon id="Fill-34" fill="#000000" points="0 0 0 5.49207623 19.2296113 5.49207623 19.2307268 22 24.7632 22 24.7625803 5.46373708 44 5.46373708 44 0"></polygon>
                    <line x1="0" y1="32" x2="155" y2="32" id="Stroke-26" stroke="#FFFFFF"></line>
                </g>
                <g id="Combined-Shape-2" fill="url(#linearGradient-5)">
                    <path d="M21.7224851,15.9038141 L22.7861308,17.2760488 L2.162,46 L3.4563689e-14,46 L21.7224851,15.9038141 Z M24.1367386,17.9677088 L25.2003844,19.3399435 L6.057,46 L3.903,46 L24.1367386,17.9677088 Z M26.0336521,20.0316036 L27.0972979,21.4038383 L9.436,46 L7.29,46 L26.0336521,20.0316036 Z M44.2813403,0 L45.344986,1.37223472 L13.299,46 L11.079,46 L44.2813403,0 Z M46.2099139,2.31650688 L47.2735597,3.6887416 L16.892,46 L14.679,46 L46.2099139,2.31650688 Z M48.1068274,4.7243841 L49.1704732,6.09661882 L20.518,46 L18.314,46 L48.1068274,4.7243841 Z M50.0037409,7.13226132 L51.0673867,8.50449604 L24.144,46 L21.949,46 L50.0037409,7.13226132 Z M51.9006544,9.36814732 L52.9643002,10.740382 L27.647,46 L25.46,46 L51.9006544,9.36814732 Z M53.9700146,11.6040333 L55.0336604,12.976268 L31.321,46 L29.144,46 L53.9700146,11.6040333 Z M56.0188798,14.1839018 L57.0107346,15.4646171 L35.103,46 L33.074,46 L56.0188798,14.1839018 Z M57.9423135,16.2477965 L58.9076481,17.4929364 L38.433,46 L36.463,46 L57.9423135,16.2477965 Z M59.7834691,18.827665 L60.632115,19.9203388 L41.868,46 L40.131,46 L59.7834691,18.827665 Z M61.738727,21.2355422 L62.5290285,22.2570651 L45.512,46 L43.897,46 L61.738727,21.2355422 Z M63.6833769,23.6434194 L64.425942,24.6039559 L49.103,46 L47.589,46 L63.6833769,23.6434194 Z M65.7898653,25.8793054 L66.4953021,26.7890199 L52.694,46 L51.26,46 L65.7898653,25.8793054 Z M67.5620685,28.4591739 L68.219769,29.3079019 L56.236,46 L54.904,46 L67.5620685,28.4591739 Z M69.6579488,30.8670511 L70.2891292,31.6802037 L59.992,46 L58.719,46 L69.6579488,30.8670511 Z M71.5866866,33.1029371 L72.1860427,33.875432 L63.471,46 L62.268,46 L71.5866866,33.1029371 Z M73.5525525,35.3388231 L74.0829562,36.0198384 L66.881,46 L65.82,46 L73.5525525,35.3388231 Z M75.4865943,37.9186915 L75.9798697,38.5488848 L70.576,46 L69.596,46 L75.4865943,37.9186915 Z M77.4365482,40.1545775 L77.8767832,40.7187021 L74.058,46 L73.188,46 L77.4365482,40.1545775 Z M79.3599818,42.5624547 L79.7736967,43.0910039 L77.664,46 L76.853,46 L79.3599818,42.5624547 Z M81.2568953,44.970332 L81.6706102,45.4988811 L81.306,46 L80.505,46 L81.2568953,44.970332 Z" id="Combined-Shape"></path>
                </g>
            </g>
        </g>
    </g>
</svg>